<mxGraphModel dx="0" dy="0" grid="1" gridSize="10" guides="1" tooltips="1" connect="1" arrows="1" fold="1" page="0" pageScale="1" background="none" math="0" shadow="0">
  <root>
    <mxCell id="0" />
    <mxCell id="1" parent="0" />
    <mxCell id="node61" parent="1" vertex="1" value="&lt;p style=&quot;margin:0px;margin-top:4px;text-align:center;&quot;&gt;&lt;b&gt;ActionGrid&lt;/b&gt;&lt;/p&gt;&lt;hr size=&quot;1&quot;/&gt;&lt;p style=&quot;margin:0 0 0 4px;line-height:1.6;&quot;&gt;+ ActionGrid(): &lt;/p&gt;&lt;hr size=&quot;1&quot;/&gt;&lt;p style=&quot;margin:0 0 0 4px;line-height:1.6;&quot;&gt;+ bicycleCheckBox: CheckBox&lt;br/&gt;+ boatCheckBox: CheckBox&lt;br/&gt;+ busCheckBox: CheckBox&lt;br/&gt;+ destinationComboBox: ComboBox&amp;lt;Vertex&amp;lt;Stop&amp;gt;&amp;gt;&lt;br/&gt;+ distanceRadio: RadioButton&lt;br/&gt;+ durationRadio: RadioButton&lt;br/&gt;+ originComboBox: ComboBox&amp;lt;Vertex&amp;lt;Stop&amp;gt;&amp;gt;&lt;br/&gt;+ searchButton: Button&lt;br/&gt;+ sustainabilityRadio: RadioButton&lt;br/&gt;+ trainCheckBox: CheckBox&lt;br/&gt;+ walkCheckBox: CheckBox&lt;/p&gt;" style="verticalAlign=top;align=left;overflow=fill;fontSize=14;fontFamily=Helvetica;html=1;rounded=0;shadow=0;comic=0;labelBackgroundColor=none;strokeWidth=1;">
      <mxGeometry x="-74" y="5830" width="360" height="337" as="geometry" />
    </mxCell>
    <mxCell id="node6" parent="1" vertex="1" value="&lt;p style=&quot;margin:0px;margin-top:4px;text-align:center;&quot;&gt;&lt;b&gt;BellmanStrategy&lt;/b&gt;&lt;/p&gt;&lt;hr size=&quot;1&quot;/&gt;&lt;p style=&quot;margin:0 0 0 4px;line-height:1.6;&quot;&gt;+ BellmanStrategy(CostStrategy): &lt;/p&gt;&lt;hr size=&quot;1&quot;/&gt;&lt;p style=&quot;margin:0 0 0 4px;line-height:1.6;&quot;&gt;~ costStrategy: CostStrategy&lt;br/&gt;~ graph: TransportMap&lt;/p&gt;&lt;hr size=&quot;1&quot;/&gt;&lt;p style=&quot;margin:0 0 0 4px;line-height:1.6;&quot;&gt;+ findLessCostPathBetweenTwoVertices(TransportMap, EnumSet&amp;lt;TransportType&amp;gt;, Vertex&amp;lt;Stop&amp;gt;, Vertex&amp;lt;Stop&amp;gt;): PathResult&lt;br/&gt;+ findLessCostPathBetweenTwoVerticesPersonalized(TransportMap, EnumSet&amp;lt;TransportType&amp;gt;, Vertex&amp;lt;Stop&amp;gt;, Vertex&amp;lt;Stop&amp;gt;, Vertex&amp;lt;Stop&amp;gt;[]): PathResult&lt;br/&gt;- isRelaxationPossible(Edge&amp;lt;Route, Stop&amp;gt;, EnumSet&amp;lt;TransportType&amp;gt;, HashMap&amp;lt;Vertex&amp;lt;Stop&amp;gt;, PathSegmentInfo&amp;gt;): boolean&lt;br/&gt;- lessCostPath(EnumSet&amp;lt;TransportType&amp;gt;, Vertex&amp;lt;Stop&amp;gt;): HashMap&amp;lt;Vertex&amp;lt;Stop&amp;gt;, PathSegmentInfo&amp;gt;&lt;br/&gt;- relaxEdge(Edge&amp;lt;Route, Stop&amp;gt;, EnumSet&amp;lt;TransportType&amp;gt;, HashMap&amp;lt;Vertex&amp;lt;Stop&amp;gt;, PathSegmentInfo&amp;gt;): void&lt;/p&gt;" style="verticalAlign=top;align=left;overflow=fill;fontSize=14;fontFamily=Helvetica;html=1;rounded=0;shadow=0;comic=0;labelBackgroundColor=none;strokeWidth=1;">
      <mxGeometry x="108" y="1615" width="677" height="247" as="geometry" />
    </mxCell>
    <mxCell id="node35" parent="1" vertex="1" value="&lt;p style=&quot;margin:0px;margin-top:4px;text-align:center;&quot;&gt;&lt;i&gt;&amp;lt;&amp;lt;interface&amp;gt;&amp;gt;&lt;/i&gt;&lt;br/&gt;&lt;b&gt;BicycleScaleCommand&lt;/b&gt;&lt;/p&gt;&lt;hr size=&quot;1&quot;/&gt;" style="verticalAlign=top;align=left;overflow=fill;fontSize=14;fontFamily=Helvetica;html=1;rounded=0;shadow=0;comic=0;labelBackgroundColor=none;strokeWidth=1;">
      <mxGeometry x="153" y="324" width="226" height="35" as="geometry" />
    </mxCell>
    <mxCell id="node29" parent="1" vertex="1" value="&lt;p style=&quot;margin:0px;margin-top:4px;text-align:center;&quot;&gt;&lt;b&gt;BikeChangeTimeView&lt;/b&gt;&lt;/p&gt;&lt;hr size=&quot;1&quot;/&gt;&lt;p style=&quot;margin:0 0 0 4px;line-height:1.6;&quot;&gt;+ BikeChangeTimeView(TransportMap): &lt;/p&gt;&lt;hr size=&quot;1&quot;/&gt;&lt;p style=&quot;margin:0 0 0 4px;line-height:1.6;&quot;&gt;+ bt_Change: Button&lt;br/&gt;+ bt_Restart: Button&lt;br/&gt;+ bt_Undo: Button&lt;br/&gt;+ hBoxBottom: HBox&lt;br/&gt;- lb_Title: Label&lt;br/&gt;- model: TransportMap&lt;br/&gt;- observers: List&amp;lt;Observer&amp;gt;&lt;br/&gt;- popupview: BorderPane&lt;br/&gt;- slider: Slider&lt;br/&gt;+ vBoxBottom: VBox&lt;br/&gt;+ vBoxMain: VBox&lt;br/&gt;+ vBoxTop: VBox&lt;/p&gt;&lt;hr size=&quot;1&quot;/&gt;&lt;p style=&quot;margin:0 0 0 4px;line-height:1.6;&quot;&gt;+ addObserver(Observer): void&lt;br/&gt;+ getPane(): BorderPane&lt;br/&gt;+ notifyObservers(Object): void&lt;br/&gt;+ removeObserver(Observer): void&lt;br/&gt;+ setTriggers(TransportMapController): void&lt;br/&gt;+ showDesign(): void&lt;/p&gt;" style="verticalAlign=top;align=left;overflow=fill;fontSize=14;fontFamily=Helvetica;html=1;rounded=0;shadow=0;comic=0;labelBackgroundColor=none;strokeWidth=1;">
      <mxGeometry x="952" y="4883" width="308" height="511" as="geometry" />
    </mxCell>
    <mxCell id="node46" parent="1" vertex="1" value="&lt;p style=&quot;margin:0px;margin-top:4px;text-align:center;&quot;&gt;&lt;b&gt;ChangeBicycleDurationScaleCommand&lt;/b&gt;&lt;/p&gt;&lt;hr size=&quot;1&quot;/&gt;&lt;p style=&quot;margin:0 0 0 4px;line-height:1.6;&quot;&gt;+ ChangeBicycleDurationScaleCommand(UserConfiguration, double): &lt;/p&gt;&lt;hr size=&quot;1&quot;/&gt;&lt;p style=&quot;margin:0 0 0 4px;line-height:1.6;&quot;&gt;- bicycleDurationScale: double&lt;br/&gt;- oldBicycleDurationScale: double&lt;br/&gt;- userConfiguration: UserConfiguration&lt;/p&gt;&lt;hr size=&quot;1&quot;/&gt;&lt;p style=&quot;margin:0 0 0 4px;line-height:1.6;&quot;&gt;+ execute(): void&lt;br/&gt;+ toString(): String&lt;br/&gt;+ undo(): void&lt;/p&gt;" style="verticalAlign=top;align=left;overflow=fill;fontSize=14;fontFamily=Helvetica;html=1;rounded=0;shadow=0;comic=0;labelBackgroundColor=none;strokeWidth=1;">
      <mxGeometry x="34" y="487" width="464" height="223" as="geometry" />
    </mxCell>
    <mxCell id="node4" parent="1" vertex="1" value="&lt;p style=&quot;margin:0px;margin-top:4px;text-align:center;&quot;&gt;&lt;b&gt;ComboBoxUtil&lt;/b&gt;&lt;/p&gt;&lt;hr size=&quot;1&quot;/&gt;&lt;p style=&quot;margin:0 0 0 4px;line-height:1.6;&quot;&gt;+ ComboBoxUtil(): &lt;/p&gt;&lt;hr size=&quot;1&quot;/&gt;&lt;p style=&quot;margin:0 0 0 4px;line-height:1.6;&quot;&gt;+ getVertexComboBox(TransportMap): ComboBox&amp;lt;Vertex&amp;lt;Stop&amp;gt;&amp;gt;&lt;br/&gt;- updateVertexComboBox(): ListCell&amp;lt;Vertex&amp;lt;Stop&amp;gt;&amp;gt;&lt;/p&gt;" style="verticalAlign=top;align=left;overflow=fill;fontSize=14;fontFamily=Helvetica;html=1;rounded=0;shadow=0;comic=0;labelBackgroundColor=none;strokeWidth=1;">
      <mxGeometry x="1361" y="839" width="450" height="129" as="geometry" />
    </mxCell>
    <mxCell id="node36" parent="1" vertex="1" value="&lt;p style=&quot;margin:0px;margin-top:4px;text-align:center;&quot;&gt;&lt;i&gt;&amp;lt;&amp;lt;interface&amp;gt;&amp;gt;&lt;/i&gt;&lt;br/&gt;&lt;b&gt;Command&lt;/b&gt;&lt;/p&gt;&lt;hr size=&quot;1&quot;/&gt;&lt;p style=&quot;margin:0 0 0 4px;line-height:1.6;&quot;&gt;+ execute(): void&lt;br/&gt;+ undo(): void&lt;/p&gt;" style="verticalAlign=top;align=left;overflow=fill;fontSize=14;fontFamily=Helvetica;html=1;rounded=0;shadow=0;comic=0;labelBackgroundColor=none;strokeWidth=1;">
      <mxGeometry x="197" y="55" width="139" height="109" as="geometry" />
    </mxCell>
    <mxCell id="node14" parent="1" vertex="1" value="&lt;p style=&quot;margin:0px;margin-top:4px;text-align:center;&quot;&gt;&lt;b&gt;Controls&lt;/b&gt;&lt;/p&gt;&lt;hr size=&quot;1&quot;/&gt;&lt;p style=&quot;margin:0 0 0 4px;line-height:1.6;&quot;&gt;+ Controls(): &lt;/p&gt;&lt;hr size=&quot;1&quot;/&gt;&lt;p style=&quot;margin:0 0 0 4px;line-height:1.6;&quot;&gt;+ createButton(String, String[]): Button&lt;br/&gt;- createControl(T, String[]): T&lt;br/&gt;+ createLabel(String, String[]): Label&lt;br/&gt;+ createTabPane(int, int, Tab[]): TabPane&lt;/p&gt;" style="verticalAlign=top;align=left;overflow=fill;fontSize=14;fontFamily=Helvetica;html=1;rounded=0;shadow=0;comic=0;labelBackgroundColor=none;strokeWidth=1;">
      <mxGeometry x="1481" y="1075" width="290" height="167" as="geometry" />
    </mxCell>
    <mxCell id="node34" parent="1" vertex="1" value="&lt;p style=&quot;margin:0px;margin-top:4px;text-align:center;&quot;&gt;&lt;b&gt;Coordinate&lt;/b&gt;&lt;/p&gt;&lt;hr size=&quot;1&quot;/&gt;&lt;p style=&quot;margin:0 0 0 4px;line-height:1.6;&quot;&gt;+ Coordinate(int, int): &lt;/p&gt;&lt;hr size=&quot;1&quot;/&gt;&lt;p style=&quot;margin:0 0 0 4px;line-height:1.6;&quot;&gt;- posX: int&lt;br/&gt;- posY: int&lt;/p&gt;&lt;hr size=&quot;1&quot;/&gt;&lt;p style=&quot;margin:0 0 0 4px;line-height:1.6;&quot;&gt;+ equals(Object): boolean&lt;br/&gt;+ getPosX(): int&lt;br/&gt;+ getPosY(): int&lt;br/&gt;+ hashCode(): int&lt;br/&gt;+ setPosX(int): void&lt;br/&gt;+ setPosY(int): void&lt;br/&gt;+ toString(): String&lt;/p&gt;" style="verticalAlign=top;align=left;overflow=fill;fontSize=14;fontFamily=Helvetica;html=1;rounded=0;shadow=0;comic=0;labelBackgroundColor=none;strokeWidth=1;">
      <mxGeometry x="1189" y="4211" width="194" height="295" as="geometry" />
    </mxCell>
    <mxCell id="node5" parent="1" vertex="1" value="&lt;p style=&quot;margin:0px;margin-top:4px;text-align:center;&quot;&gt;&lt;i&gt;&amp;lt;&amp;lt;interface&amp;gt;&amp;gt;&lt;/i&gt;&lt;br/&gt;&lt;b&gt;CostStrategy&lt;/b&gt;&lt;/p&gt;&lt;hr size=&quot;1&quot;/&gt;&lt;p style=&quot;margin:0 0 0 4px;line-height:1.6;&quot;&gt;+ getCost(RouteInfo): double&lt;br/&gt;+ getOtherCosts(): EnumSet&amp;lt;PathCriteria&amp;gt;&lt;br/&gt;+ getPathCriteria(): PathCriteria&lt;br/&gt;+ setCost(RouteInfo, double): void&lt;/p&gt;" style="verticalAlign=top;align=left;overflow=fill;fontSize=14;fontFamily=Helvetica;html=1;rounded=0;shadow=0;comic=0;labelBackgroundColor=none;strokeWidth=1;">
      <mxGeometry x="2497" y="5071" width="299" height="169" as="geometry" />
    </mxCell>
    <mxCell id="node49" parent="1" vertex="1" value="&lt;p style=&quot;margin:0px;margin-top:4px;text-align:center;&quot;&gt;&lt;b&gt;DFSStrategy&lt;/b&gt;&lt;/p&gt;&lt;hr size=&quot;1&quot;/&gt;&lt;p style=&quot;margin:0 0 0 4px;line-height:1.6;&quot;&gt;+ DFSStrategy(CostStrategy): &lt;/p&gt;&lt;hr size=&quot;1&quot;/&gt;&lt;p style=&quot;margin:0 0 0 4px;line-height:1.6;&quot;&gt;~ costStrategy: CostStrategy&lt;br/&gt;~ graph: TransportMap&lt;/p&gt;&lt;hr size=&quot;1&quot;/&gt;&lt;p style=&quot;margin:0 0 0 4px;line-height:1.6;&quot;&gt;+ findLessCostPathBetweenTwoVertices(TransportMap, EnumSet&amp;lt;TransportType&amp;gt;, Vertex&amp;lt;Stop&amp;gt;, Vertex&amp;lt;Stop&amp;gt;): PathResult&lt;br/&gt;+ findLessCostPathBetweenTwoVerticesPersonalized(TransportMap, EnumSet&amp;lt;TransportType&amp;gt;, Vertex&amp;lt;Stop&amp;gt;, Vertex&amp;lt;Stop&amp;gt;, Vertex&amp;lt;Stop&amp;gt;[]): PathResult&lt;br/&gt;- lessCostPath(EnumSet&amp;lt;TransportType&amp;gt;, Vertex&amp;lt;Stop&amp;gt;): HashMap&amp;lt;Vertex&amp;lt;Stop&amp;gt;, PathSegmentInfo&amp;gt;&lt;/p&gt;" style="verticalAlign=top;align=left;overflow=fill;fontSize=14;fontFamily=Helvetica;html=1;rounded=0;shadow=0;comic=0;labelBackgroundColor=none;strokeWidth=1;">
      <mxGeometry x="468" y="1979" width="677" height="199" as="geometry" />
    </mxCell>
    <mxCell id="node54" parent="1" vertex="1" value="&lt;p style=&quot;margin:0px;margin-top:4px;text-align:center;&quot;&gt;&lt;b&gt;DijkstraNegativeFixStrategy&lt;/b&gt;&lt;/p&gt;&lt;hr size=&quot;1&quot;/&gt;&lt;p style=&quot;margin:0 0 0 4px;line-height:1.6;&quot;&gt;+ DijkstraNegativeFixStrategy(CostStrategy): &lt;/p&gt;&lt;hr size=&quot;1&quot;/&gt;&lt;p style=&quot;margin:0 0 0 4px;line-height:1.6;&quot;&gt;~ costStrategy: CostStrategy&lt;br/&gt;~ graph: TransportMap&lt;/p&gt;&lt;hr size=&quot;1&quot;/&gt;&lt;p style=&quot;margin:0 0 0 4px;line-height:1.6;&quot;&gt;+ findLessCostPathBetweenTwoVertices(TransportMap, EnumSet&amp;lt;TransportType&amp;gt;, Vertex&amp;lt;Stop&amp;gt;, Vertex&amp;lt;Stop&amp;gt;): PathResult&lt;br/&gt;+ findLessCostPathBetweenTwoVerticesPersonalized(TransportMap, EnumSet&amp;lt;TransportType&amp;gt;, Vertex&amp;lt;Stop&amp;gt;, Vertex&amp;lt;Stop&amp;gt;, Vertex&amp;lt;Stop&amp;gt;[]): PathResult&lt;br/&gt;- lessCostPath(EnumSet&amp;lt;TransportType&amp;gt;, Vertex&amp;lt;Stop&amp;gt;): HashMap&amp;lt;Vertex&amp;lt;Stop&amp;gt;, PathSegmentInfo&amp;gt;&lt;/p&gt;" style="verticalAlign=top;align=left;overflow=fill;fontSize=14;fontFamily=Helvetica;html=1;rounded=0;shadow=0;comic=0;labelBackgroundColor=none;strokeWidth=1;">
      <mxGeometry x="828" y="1639" width="677" height="199" as="geometry" />
    </mxCell>
    <mxCell id="node58" parent="1" vertex="1" value="&lt;p style=&quot;margin:0px;margin-top:4px;text-align:center;&quot;&gt;&lt;b&gt;DijkstraStrategy&lt;/b&gt;&lt;/p&gt;&lt;hr size=&quot;1&quot;/&gt;&lt;p style=&quot;margin:0 0 0 4px;line-height:1.6;&quot;&gt;+ DijkstraStrategy(CostStrategy): &lt;/p&gt;&lt;hr size=&quot;1&quot;/&gt;&lt;p style=&quot;margin:0 0 0 4px;line-height:1.6;&quot;&gt;~ costStrategy: CostStrategy&lt;br/&gt;~ graph: TransportMap&lt;/p&gt;&lt;hr size=&quot;1&quot;/&gt;&lt;p style=&quot;margin:0 0 0 4px;line-height:1.6;&quot;&gt;+ findLessCostPathBetweenTwoVertices(TransportMap, EnumSet&amp;lt;TransportType&amp;gt;, Vertex&amp;lt;Stop&amp;gt;, Vertex&amp;lt;Stop&amp;gt;): PathResult&lt;br/&gt;+ findLessCostPathBetweenTwoVerticesPersonalized(TransportMap, EnumSet&amp;lt;TransportType&amp;gt;, Vertex&amp;lt;Stop&amp;gt;, Vertex&amp;lt;Stop&amp;gt;, Vertex&amp;lt;Stop&amp;gt;[]): PathResult&lt;br/&gt;- lessCostPath(EnumSet&amp;lt;TransportType&amp;gt;, Vertex&amp;lt;Stop&amp;gt;): HashMap&amp;lt;Vertex&amp;lt;Stop&amp;gt;, PathSegmentInfo&amp;gt;&lt;/p&gt;" style="verticalAlign=top;align=left;overflow=fill;fontSize=14;fontFamily=Helvetica;html=1;rounded=0;shadow=0;comic=0;labelBackgroundColor=none;strokeWidth=1;">
      <mxGeometry x="1188" y="1979" width="677" height="199" as="geometry" />
    </mxCell>
    <mxCell id="node43" parent="1" vertex="1" value="&lt;p style=&quot;margin:0px;margin-top:4px;text-align:center;&quot;&gt;&lt;b&gt;DisableRouteCommand&lt;/b&gt;&lt;/p&gt;&lt;hr size=&quot;1&quot;/&gt;&lt;p style=&quot;margin:0 0 0 4px;line-height:1.6;&quot;&gt;+ DisableRouteCommand(UserConfiguration, Edge&amp;lt;Route, Stop&amp;gt;): &lt;/p&gt;&lt;hr size=&quot;1&quot;/&gt;&lt;p style=&quot;margin:0 0 0 4px;line-height:1.6;&quot;&gt;- route: Edge&amp;lt;Route, Stop&amp;gt;&lt;br/&gt;- userConfiguration: UserConfiguration&lt;/p&gt;&lt;hr size=&quot;1&quot;/&gt;&lt;p style=&quot;margin:0 0 0 4px;line-height:1.6;&quot;&gt;+ execute(): void&lt;br/&gt;+ toString(): String&lt;br/&gt;+ undo(): void&lt;/p&gt;" style="verticalAlign=top;align=left;overflow=fill;fontSize=14;fontFamily=Helvetica;html=1;rounded=0;shadow=0;comic=0;labelBackgroundColor=none;strokeWidth=1;">
      <mxGeometry x="1883" y="799" width="447" height="199" as="geometry" />
    </mxCell>
    <mxCell id="node50" parent="1" vertex="1" value="&lt;p style=&quot;margin:0px;margin-top:4px;text-align:center;&quot;&gt;&lt;b&gt;DisableRouteTransportTypeCommand&lt;/b&gt;&lt;/p&gt;&lt;hr size=&quot;1&quot;/&gt;&lt;p style=&quot;margin:0 0 0 4px;line-height:1.6;&quot;&gt;+ DisableRouteTransportTypeCommand(UserConfiguration, Edge&amp;lt;Route, Stop&amp;gt;, TransportType): &lt;/p&gt;&lt;hr size=&quot;1&quot;/&gt;&lt;p style=&quot;margin:0 0 0 4px;line-height:1.6;&quot;&gt;- route: Edge&amp;lt;Route, Stop&amp;gt;&lt;br/&gt;- transportType: TransportType&lt;br/&gt;- userConfiguration: UserConfiguration&lt;/p&gt;&lt;hr size=&quot;1&quot;/&gt;&lt;p style=&quot;margin:0 0 0 4px;line-height:1.6;&quot;&gt;+ execute(): void&lt;br/&gt;+ toString(): String&lt;br/&gt;+ undo(): void&lt;/p&gt;" style="verticalAlign=top;align=left;overflow=fill;fontSize=14;fontFamily=Helvetica;html=1;rounded=0;shadow=0;comic=0;labelBackgroundColor=none;strokeWidth=1;">
      <mxGeometry x="761" y="787" width="450" height="223" as="geometry" />
    </mxCell>
    <mxCell id="node7" parent="1" vertex="1" value="&lt;p style=&quot;margin:0px;margin-top:4px;text-align:center;&quot;&gt;&lt;b&gt;DisableRouteView&lt;/b&gt;&lt;/p&gt;&lt;hr size=&quot;1&quot;/&gt;&lt;p style=&quot;margin:0 0 0 4px;line-height:1.6;&quot;&gt;+ DisableRouteView(TransportMap): &lt;/p&gt;&lt;hr size=&quot;1&quot;/&gt;&lt;p style=&quot;margin:0 0 0 4px;line-height:1.6;&quot;&gt;+ bicycleCheckBox: CheckBox&lt;br/&gt;+ boatCheckBox: CheckBox&lt;br/&gt;+ btDeactivate: Button&lt;br/&gt;+ btReset: Button&lt;br/&gt;+ btUndoRoute: Button&lt;br/&gt;+ btUndoTransport: Button&lt;br/&gt;+ busCheckBox: CheckBox&lt;br/&gt;- cbFinish: ComboBox&amp;lt;Vertex&amp;lt;Stop&amp;gt;&amp;gt;&lt;br/&gt;- cbStart: ComboBox&amp;lt;Vertex&amp;lt;Stop&amp;gt;&amp;gt;&lt;br/&gt;+ hBoxBottom: HBox&lt;br/&gt;+ hBoxMain: HBox&lt;br/&gt;+ hBoxTop: HBox&lt;br/&gt;- model: TransportMap&lt;br/&gt;- observers: List&amp;lt;Observer&amp;gt;&lt;br/&gt;- popupView: BorderPane&lt;br/&gt;+ trainCheckBox: CheckBox&lt;br/&gt;+ vBoxLeft: VBox&lt;br/&gt;+ vBoxRight: VBox&lt;br/&gt;+ walkCheckBox: CheckBox&lt;/p&gt;&lt;hr size=&quot;1&quot;/&gt;&lt;p style=&quot;margin:0 0 0 4px;line-height:1.6;&quot;&gt;+ addObserver(Observer): void&lt;br/&gt;+ getPane(): BorderPane&lt;br/&gt;- getSelectedTransportTypes(): EnumSet&amp;lt;TransportType&amp;gt;&lt;br/&gt;+ notifyObservers(Object): void&lt;br/&gt;+ removeObserver(Observer): void&lt;br/&gt;+ setTriggers(TransportMapController): void&lt;br/&gt;+ showDesign(): void&lt;br/&gt;+ updateMap(TransportMapController): void&lt;/p&gt;" style="verticalAlign=top;align=left;overflow=fill;fontSize=14;fontFamily=Helvetica;html=1;rounded=0;shadow=0;comic=0;labelBackgroundColor=none;strokeWidth=1;">
      <mxGeometry x="127" y="3995" width="399" height="727" as="geometry" />
    </mxCell>
    <mxCell id="node42" parent="1" vertex="1" value="&lt;p style=&quot;margin:0px;margin-top:4px;text-align:center;&quot;&gt;&lt;b&gt;DistanceCostStrategy&lt;/b&gt;&lt;/p&gt;&lt;hr size=&quot;1&quot;/&gt;&lt;p style=&quot;margin:0 0 0 4px;line-height:1.6;&quot;&gt;+ DistanceCostStrategy(): &lt;/p&gt;&lt;hr size=&quot;1&quot;/&gt;&lt;p style=&quot;margin:0 0 0 4px;line-height:1.6;&quot;&gt;- otherCosts: EnumSet&amp;lt;PathCriteria&amp;gt;&lt;br/&gt;- pathCriteria: PathCriteria&lt;/p&gt;&lt;hr size=&quot;1&quot;/&gt;&lt;p style=&quot;margin:0 0 0 4px;line-height:1.6;&quot;&gt;+ getCost(RouteInfo): double&lt;br/&gt;+ getOtherCosts(): EnumSet&amp;lt;PathCriteria&amp;gt;&lt;br/&gt;+ getPathCriteria(): PathCriteria&lt;br/&gt;+ setCost(RouteInfo, double): void&lt;/p&gt;" style="verticalAlign=top;align=left;overflow=fill;fontSize=14;fontFamily=Helvetica;html=1;rounded=0;shadow=0;comic=0;labelBackgroundColor=none;strokeWidth=1;">
      <mxGeometry x="2317" y="6847" width="299" height="223" as="geometry" />
    </mxCell>
    <mxCell id="node12" parent="1" vertex="1" value="&lt;p style=&quot;margin:0px;margin-top:4px;text-align:center;&quot;&gt;&lt;b&gt;DurationCostStrategy&lt;/b&gt;&lt;/p&gt;&lt;hr size=&quot;1&quot;/&gt;&lt;p style=&quot;margin:0 0 0 4px;line-height:1.6;&quot;&gt;+ DurationCostStrategy(): &lt;/p&gt;&lt;hr size=&quot;1&quot;/&gt;&lt;p style=&quot;margin:0 0 0 4px;line-height:1.6;&quot;&gt;- otherCosts: EnumSet&amp;lt;PathCriteria&amp;gt;&lt;br/&gt;- pathCriteria: PathCriteria&lt;/p&gt;&lt;hr size=&quot;1&quot;/&gt;&lt;p style=&quot;margin:0 0 0 4px;line-height:1.6;&quot;&gt;+ getCost(RouteInfo): double&lt;br/&gt;+ getOtherCosts(): EnumSet&amp;lt;PathCriteria&amp;gt;&lt;br/&gt;+ getPathCriteria(): PathCriteria&lt;br/&gt;+ setCost(RouteInfo, double): void&lt;/p&gt;" style="verticalAlign=top;align=left;overflow=fill;fontSize=14;fontFamily=Helvetica;html=1;rounded=0;shadow=0;comic=0;labelBackgroundColor=none;strokeWidth=1;">
      <mxGeometry x="1957" y="6847" width="299" height="223" as="geometry" />
    </mxCell>
    <mxCell id="node56" parent="1" vertex="1" value="&lt;p style=&quot;margin:0px;margin-top:4px;text-align:center;&quot;&gt;&lt;b&gt;EdgeConverter&lt;/b&gt;&lt;/p&gt;&lt;hr size=&quot;1&quot;/&gt;&lt;p style=&quot;margin:0 0 0 4px;line-height:1.6;&quot;&gt;+ EdgeConverter(TransportMap): &lt;/p&gt;&lt;hr size=&quot;1&quot;/&gt;&lt;p style=&quot;margin:0 0 0 4px;line-height:1.6;&quot;&gt;- model: TransportMap&lt;/p&gt;&lt;hr size=&quot;1&quot;/&gt;&lt;p style=&quot;margin:0 0 0 4px;line-height:1.6;&quot;&gt;+ getEdge(SerializableEdge): Edge&amp;lt;Route, Stop&amp;gt;&lt;/p&gt;" style="verticalAlign=top;align=left;overflow=fill;fontSize=14;fontFamily=Helvetica;html=1;rounded=0;shadow=0;comic=0;labelBackgroundColor=none;strokeWidth=1;">
      <mxGeometry x="378" y="1295" width="337" height="137" as="geometry" />
    </mxCell>
    <mxCell id="node0" parent="1" vertex="1" value="&lt;p style=&quot;margin:0px;margin-top:4px;text-align:center;&quot;&gt;&lt;b&gt;EnableRouteCommand&lt;/b&gt;&lt;/p&gt;&lt;hr size=&quot;1&quot;/&gt;&lt;p style=&quot;margin:0 0 0 4px;line-height:1.6;&quot;&gt;+ EnableRouteCommand(UserConfiguration, Edge&amp;lt;Route, Stop&amp;gt;): &lt;/p&gt;&lt;hr size=&quot;1&quot;/&gt;&lt;p style=&quot;margin:0 0 0 4px;line-height:1.6;&quot;&gt;- route: Edge&amp;lt;Route, Stop&amp;gt;&lt;br/&gt;- userConfiguration: UserConfiguration&lt;/p&gt;&lt;hr size=&quot;1&quot;/&gt;&lt;p style=&quot;margin:0 0 0 4px;line-height:1.6;&quot;&gt;+ execute(): void&lt;br/&gt;+ toString(): String&lt;br/&gt;+ undo(): void&lt;/p&gt;" style="verticalAlign=top;align=left;overflow=fill;fontSize=14;fontFamily=Helvetica;html=1;rounded=0;shadow=0;comic=0;labelBackgroundColor=none;strokeWidth=1;">
      <mxGeometry x="2125" y="499" width="443" height="199" as="geometry" />
    </mxCell>
    <mxCell id="node33" parent="1" vertex="1" value="&lt;p style=&quot;margin:0px;margin-top:4px;text-align:center;&quot;&gt;&lt;b&gt;EnableRouteTransportTypeCommand&lt;/b&gt;&lt;/p&gt;&lt;hr size=&quot;1&quot;/&gt;&lt;p style=&quot;margin:0 0 0 4px;line-height:1.6;&quot;&gt;+ EnableRouteTransportTypeCommand(UserConfiguration, Edge&amp;lt;Route, Stop&amp;gt;, TransportType): &lt;/p&gt;&lt;hr size=&quot;1&quot;/&gt;&lt;p style=&quot;margin:0 0 0 4px;line-height:1.6;&quot;&gt;- route: Edge&amp;lt;Route, Stop&amp;gt;&lt;br/&gt;- transportType: TransportType&lt;br/&gt;- userConfiguration: UserConfiguration&lt;/p&gt;&lt;hr size=&quot;1&quot;/&gt;&lt;p style=&quot;margin:0 0 0 4px;line-height:1.6;&quot;&gt;+ execute(): void&lt;br/&gt;+ toString(): String&lt;br/&gt;+ undo(): void&lt;/p&gt;" style="verticalAlign=top;align=left;overflow=fill;fontSize=14;fontFamily=Helvetica;html=1;rounded=0;shadow=0;comic=0;labelBackgroundColor=none;strokeWidth=1;">
      <mxGeometry x="1620" y="487" width="452" height="223" as="geometry" />
    </mxCell>
    <mxCell id="node59" parent="1" vertex="1" value="&lt;p style=&quot;margin:0px;margin-top:4px;text-align:center;&quot;&gt;&lt;b&gt;ImportCsv&lt;/b&gt;&lt;/p&gt;&lt;hr size=&quot;1&quot;/&gt;&lt;p style=&quot;margin:0 0 0 4px;line-height:1.6;&quot;&gt;+ ImportCsv(): &lt;/p&gt;&lt;hr size=&quot;1&quot;/&gt;&lt;p style=&quot;margin:0 0 0 4px;line-height:1.6;&quot;&gt;- coordsCSV: String&lt;br/&gt;- routeCSV: String&lt;br/&gt;- stopCSV: String&lt;/p&gt;&lt;hr size=&quot;1&quot;/&gt;&lt;p style=&quot;margin:0 0 0 4px;line-height:1.6;&quot;&gt;+ readCoords(): Map&amp;lt;String, Coordinate&amp;gt;&lt;br/&gt;- readRoute(TransportMap, Map&amp;lt;String, Stop&amp;gt;): void&lt;br/&gt;- readStop(): Map&amp;lt;String, Stop&amp;gt;&lt;br/&gt;+ update(TransportMap): void&lt;/p&gt;" style="verticalAlign=top;align=left;overflow=fill;fontSize=14;fontFamily=Helvetica;html=1;rounded=0;shadow=0;comic=0;labelBackgroundColor=none;strokeWidth=1;">
      <mxGeometry x="-176" y="775" width="364" height="247" as="geometry" />
    </mxCell>
    <mxCell id="node1" parent="1" vertex="1" value="&lt;p style=&quot;margin:0px;margin-top:4px;text-align:center;&quot;&gt;&lt;b&gt;Logger&lt;/b&gt;&lt;/p&gt;&lt;hr size=&quot;1&quot;/&gt;&lt;p style=&quot;margin:0 0 0 4px;line-height:1.6;&quot;&gt;+ Logger(): &lt;/p&gt;&lt;hr size=&quot;1&quot;/&gt;&lt;p style=&quot;margin:0 0 0 4px;line-height:1.6;&quot;&gt;- fileName: String&lt;/p&gt;&lt;hr size=&quot;1&quot;/&gt;&lt;p style=&quot;margin:0 0 0 4px;line-height:1.6;&quot;&gt;+ readFromFile(): List&amp;lt;String&amp;gt;&lt;br/&gt;+ update(Observable, Object): void&lt;br/&gt;- writeToFile(String): void&lt;/p&gt;" style="verticalAlign=top;align=left;overflow=fill;fontSize=14;fontFamily=Helvetica;html=1;rounded=0;shadow=0;comic=0;labelBackgroundColor=none;strokeWidth=1;">
      <mxGeometry x="1761" y="1651" width="251" height="175" as="geometry" />
    </mxCell>
    <mxCell id="node16" parent="1" vertex="1" value="&lt;p style=&quot;margin:0px;margin-top:4px;text-align:center;&quot;&gt;&lt;b&gt;LoggerView&lt;/b&gt;&lt;/p&gt;&lt;hr size=&quot;1&quot;/&gt;&lt;p style=&quot;margin:0 0 0 4px;line-height:1.6;&quot;&gt;+ LoggerView(): &lt;/p&gt;&lt;hr size=&quot;1&quot;/&gt;&lt;p style=&quot;margin:0 0 0 4px;line-height:1.6;&quot;&gt;- commandList: List&amp;lt;String&amp;gt;&lt;br/&gt;- commandListObs: ObservableList&amp;lt;String&amp;gt;&lt;br/&gt;- logger: Logger&lt;/p&gt;&lt;hr size=&quot;1&quot;/&gt;&lt;p style=&quot;margin:0 0 0 4px;line-height:1.6;&quot;&gt;- saveMemory(): void&lt;br/&gt;+ update(Observable, Object): void&lt;/p&gt;" style="verticalAlign=top;align=left;overflow=fill;fontSize=14;fontFamily=Helvetica;html=1;rounded=0;shadow=0;comic=0;labelBackgroundColor=none;strokeWidth=1;">
      <mxGeometry x="1913" y="1979" width="307" height="199" as="geometry" />
    </mxCell>
    <mxCell id="node25" parent="1" vertex="1" value="&lt;p style=&quot;margin:0px;margin-top:4px;text-align:center;&quot;&gt;&lt;b&gt;Main&lt;/b&gt;&lt;/p&gt;&lt;hr size=&quot;1&quot;/&gt;&lt;p style=&quot;margin:0 0 0 4px;line-height:1.6;&quot;&gt;+ Main(): &lt;/p&gt;&lt;hr size=&quot;1&quot;/&gt;&lt;p style=&quot;margin:0 0 0 4px;line-height:1.6;&quot;&gt;+ main(String[]): void&lt;br/&gt;+ start(Stage): void&lt;/p&gt;" style="verticalAlign=top;align=left;overflow=fill;fontSize=14;fontFamily=Helvetica;html=1;rounded=0;shadow=0;comic=0;labelBackgroundColor=none;strokeWidth=1;">
      <mxGeometry x="1083" y="2479" width="166" height="129" as="geometry" />
    </mxCell>
    <mxCell id="node57" parent="1" vertex="1" value="&lt;p style=&quot;margin:0px;margin-top:4px;text-align:center;&quot;&gt;&lt;b&gt;MainView&lt;/b&gt;&lt;/p&gt;&lt;hr size=&quot;1&quot;/&gt;&lt;p style=&quot;margin:0 0 0 4px;line-height:1.6;&quot;&gt;+ MainView(Graph&amp;lt;Stop, Route&amp;gt;, TransportMap, String): &lt;/p&gt;&lt;hr size=&quot;1&quot;/&gt;&lt;p style=&quot;margin:0 0 0 4px;line-height:1.6;&quot;&gt;- CSS_FILE: String&lt;br/&gt;- bikeChangeTimeView: BikeChangeTimeView&lt;br/&gt;- disableRouteView: DisableRouteView&lt;br/&gt;- loggerView: LoggerView&lt;br/&gt;- mainViewPane: BorderPane&lt;br/&gt;- mapView: MapView&lt;br/&gt;- metricView: MetricView&lt;br/&gt;- model: TransportMap&lt;br/&gt;- pRouteView: PRouteView&lt;br/&gt;- startView: StartView&lt;br/&gt;- tabContent: BorderPane&lt;br/&gt;- topMenu: TopMenu&lt;br/&gt;- topTabPane: TopTabPane&lt;/p&gt;&lt;hr size=&quot;1&quot;/&gt;&lt;p style=&quot;margin:0 0 0 4px;line-height:1.6;&quot;&gt;+ changeMap(MapType): void&lt;br/&gt;+ clearMap(): void&lt;br/&gt;+ displayBikeChangeTime(): void&lt;br/&gt;+ displayDisableRoute(): void&lt;br/&gt;+ getLoggerView(): LoggerView&lt;br/&gt;+ getMainViewPane(): BorderPane&lt;br/&gt;+ getMapView(): MapView&lt;br/&gt;+ getMetricView(): MetricView&lt;br/&gt;+ getPRouteView(): PRouteView&lt;br/&gt;+ getStartView(): StartView&lt;br/&gt;+ initGraphDisplay(): void&lt;br/&gt;+ isPRView(): boolean&lt;br/&gt;+ setTriggers(TransportMapController): void&lt;br/&gt;+ showError(String): void&lt;br/&gt;+ showInfo(String): void&lt;br/&gt;- showLoggerView(): void&lt;br/&gt;+ showMetricCentrality(List&amp;lt;Entry&amp;lt;Stop, Integer&amp;gt;&amp;gt;): void&lt;br/&gt;+ showMetricNumberRoutes(int, Map&amp;lt;TransportType, Integer&amp;gt;): void&lt;br/&gt;+ showMetricNumberStops(int, int, int): void&lt;br/&gt;+ showMetricTop5(List&amp;lt;Entry&amp;lt;Stop, Integer&amp;gt;&amp;gt;): void&lt;br/&gt;- showMetricView(): void&lt;br/&gt;- showPRouteView(): void&lt;br/&gt;+ showPopup(Pane, double, double): void&lt;br/&gt;+ showRouteInfo(Edge&amp;lt;Route, Stop&amp;gt;): void&lt;br/&gt;- showStartView(): void&lt;br/&gt;+ showStopInfo(Stop): void&lt;br/&gt;+ update(Observable, Object): void&lt;/p&gt;" style="verticalAlign=top;align=left;overflow=fill;fontSize=14;fontFamily=Helvetica;html=1;rounded=0;shadow=0;comic=0;labelBackgroundColor=none;strokeWidth=1;">
      <mxGeometry x="2095" y="2819" width="462" height="1039" as="geometry" />
    </mxCell>
    <mxCell id="node8" parent="1" vertex="1" value="&lt;p style=&quot;margin:0px;margin-top:4px;text-align:center;&quot;&gt;&lt;i&gt;&amp;lt;&amp;lt;enumeration&amp;gt;&amp;gt;&lt;/i&gt;&lt;br/&gt;&lt;b&gt;MapType&lt;/b&gt;&lt;/p&gt;&lt;hr size=&quot;1&quot;/&gt;&lt;p style=&quot;margin:0 0 0 4px;line-height:1.6;&quot;&gt;- MapType(String, String): &lt;/p&gt;&lt;hr size=&quot;1&quot;/&gt;&lt;p style=&quot;margin:0 0 0 4px;line-height:1.6;&quot;&gt;+ DEFAULT: &lt;br/&gt;+ NIGHT: &lt;br/&gt;+ SATELLITE: &lt;br/&gt;+ TERRAIN: &lt;br/&gt;- path: String&lt;br/&gt;- text: String&lt;/p&gt;&lt;hr size=&quot;1&quot;/&gt;&lt;p style=&quot;margin:0 0 0 4px;line-height:1.6;&quot;&gt;+ getPath(): String&lt;br/&gt;+ toString(): String&lt;br/&gt;+ valueOf(String): MapType&lt;br/&gt;+ values(): MapType[]&lt;/p&gt;" style="verticalAlign=top;align=left;overflow=fill;fontSize=14;fontFamily=Helvetica;html=1;rounded=0;shadow=0;comic=0;labelBackgroundColor=none;strokeWidth=1;">
      <mxGeometry x="1244" y="439" width="205" height="319" as="geometry" />
    </mxCell>
    <mxCell id="node24" parent="1" vertex="1" value="&lt;p style=&quot;margin:0px;margin-top:4px;text-align:center;&quot;&gt;&lt;b&gt;MapView&lt;/b&gt;&lt;/p&gt;&lt;hr size=&quot;1&quot;/&gt;&lt;p style=&quot;margin:0 0 0 4px;line-height:1.6;&quot;&gt;+ MapView(Graph&amp;lt;Stop, Route&amp;gt;, TransportMap): &lt;/p&gt;&lt;hr size=&quot;1&quot;/&gt;&lt;p style=&quot;margin:0 0 0 4px;line-height:1.6;&quot;&gt;- distance: double&lt;br/&gt;- duration: double&lt;br/&gt;- graphView: SmartGraphPanel&amp;lt;Stop, Route&amp;gt;&lt;br/&gt;- listDetails: List&amp;lt;String&amp;gt;&lt;br/&gt;- mapViewPane: BorderPane&lt;br/&gt;- model: TransportMap&lt;br/&gt;- observers: List&amp;lt;Observer&amp;gt;&lt;br/&gt;- selectedVertices: List&amp;lt;Vertex&amp;lt;Stop&amp;gt;&amp;gt;&lt;br/&gt;- totalCost: double&lt;/p&gt;&lt;hr size=&quot;1&quot;/&gt;&lt;p style=&quot;margin:0 0 0 4px;line-height:1.6;&quot;&gt;+ addObserver(Observer): void&lt;br/&gt;+ changeMap(MapType): void&lt;br/&gt;+ clearChosenVertices(): void&lt;br/&gt;+ clearGraphColors(): void&lt;br/&gt;+ clearMap(): void&lt;br/&gt;+ colorDisabledEdges(): void&lt;br/&gt;+ colorEdge(String, Vertex&amp;lt;Stop&amp;gt;, Vertex&amp;lt;Stop&amp;gt;): void&lt;br/&gt;- getCssFromTransportType(Iterator&amp;lt;TransportType&amp;gt;, String): String&lt;br/&gt;+ getMapViewPane(): BorderPane&lt;br/&gt;+ getRouteInfoPane(Edge&amp;lt;Route, Stop&amp;gt;): Pane&lt;br/&gt;+ getStopInfoPane(Stop): Pane&lt;br/&gt;+ initGraphDisplay(): void&lt;br/&gt;+ notifyObservers(Object): void&lt;br/&gt;+ removeObserver(Observer): void&lt;br/&gt;- removeStop(Vertex&amp;lt;Stop&amp;gt;): List&amp;lt;String&amp;gt;&lt;br/&gt;- resetMetrics(): void&lt;br/&gt;- selectStop(Vertex&amp;lt;Stop&amp;gt;): List&amp;lt;String&amp;gt;&lt;br/&gt;+ setTriggers(TransportMapController): void&lt;br/&gt;- setVertexPositions(): void&lt;br/&gt;+ updateGraphDisplay(): void&lt;br/&gt;- updateGraphStyles(Vertex&amp;lt;Stop&amp;gt;, Vertex&amp;lt;Stop&amp;gt;): void&lt;br/&gt;+ visualizeGraphColors(PathResult): void&lt;br/&gt;+ visualizeGraphColorsPersonalized(PathResult): void&lt;/p&gt;" style="verticalAlign=top;align=left;overflow=fill;fontSize=14;fontFamily=Helvetica;html=1;rounded=0;shadow=0;comic=0;labelBackgroundColor=none;strokeWidth=1;">
      <mxGeometry x="615" y="3935" width="463" height="847" as="geometry" />
    </mxCell>
    <mxCell id="node10" parent="1" vertex="1" value="&lt;p style=&quot;margin:0px;margin-top:4px;text-align:center;&quot;&gt;&lt;b&gt;MetricActions&lt;/b&gt;&lt;/p&gt;&lt;hr size=&quot;1&quot;/&gt;&lt;p style=&quot;margin:0 0 0 4px;line-height:1.6;&quot;&gt;+ MetricActions(): &lt;/p&gt;&lt;hr size=&quot;1&quot;/&gt;&lt;p style=&quot;margin:0 0 0 4px;line-height:1.6;&quot;&gt;- btCentrality: Button&lt;br/&gt;- btNumberRoutes: Button&lt;br/&gt;- btNumberStops: Button&lt;br/&gt;- btTop5: Button&lt;br/&gt;- metricActionsPane: GridPane&lt;/p&gt;&lt;hr size=&quot;1&quot;/&gt;&lt;p style=&quot;margin:0 0 0 4px;line-height:1.6;&quot;&gt;+ getMetricActionsPane(): GridPane&lt;br/&gt;+ setTriggers(TransportMapController): void&lt;/p&gt;" style="verticalAlign=top;align=left;overflow=fill;fontSize=14;fontFamily=Helvetica;html=1;rounded=0;shadow=0;comic=0;labelBackgroundColor=none;strokeWidth=1;">
      <mxGeometry x="1492" y="4235" width="308" height="247" as="geometry" />
    </mxCell>
    <mxCell id="node18" parent="1" vertex="1" value="&lt;p style=&quot;margin:0px;margin-top:4px;text-align:center;&quot;&gt;&lt;b&gt;MetricView&lt;/b&gt;&lt;/p&gt;&lt;hr size=&quot;1&quot;/&gt;&lt;p style=&quot;margin:0 0 0 4px;line-height:1.6;&quot;&gt;+ MetricView(): &lt;/p&gt;&lt;hr size=&quot;1&quot;/&gt;&lt;p style=&quot;margin:0 0 0 4px;line-height:1.6;&quot;&gt;- informationPane: Pane&lt;br/&gt;- metricActions: MetricActions&lt;br/&gt;- metricViewPane: Pane&lt;br/&gt;- observers: List&amp;lt;Observer&amp;gt;&lt;/p&gt;&lt;hr size=&quot;1&quot;/&gt;&lt;p style=&quot;margin:0 0 0 4px;line-height:1.6;&quot;&gt;+ addObserver(Observer): void&lt;br/&gt;- createDefaultInformation(): VBox&lt;br/&gt;+ createPaneCentrality(List&amp;lt;Entry&amp;lt;Stop, Integer&amp;gt;&amp;gt;): VBox&lt;br/&gt;+ createPaneNumberRoutes(int, Map&amp;lt;TransportType, Integer&amp;gt;): GridPane&lt;br/&gt;- createPaneNumberStops(int, int, int): VBox&lt;br/&gt;+ createPaneTop5(List&amp;lt;Entry&amp;lt;Stop, Integer&amp;gt;&amp;gt;): VBox&lt;br/&gt;+ getMetricViewPane(): Pane&lt;br/&gt;+ notifyObservers(Object): void&lt;br/&gt;+ removeObserver(Observer): void&lt;br/&gt;+ setTriggers(TransportMapController): void&lt;br/&gt;- showInformation(Pane): void&lt;br/&gt;+ showMetricCentrality(List&amp;lt;Entry&amp;lt;Stop, Integer&amp;gt;&amp;gt;): void&lt;br/&gt;+ showMetricNumberRoutes(int, Map&amp;lt;TransportType, Integer&amp;gt;): void&lt;br/&gt;+ showMetricNumberStops(int, int, int): void&lt;br/&gt;+ showMetricTop5(List&amp;lt;Entry&amp;lt;Stop, Integer&amp;gt;&amp;gt;): void&lt;/p&gt;" style="verticalAlign=top;align=left;overflow=fill;fontSize=14;fontFamily=Helvetica;html=1;rounded=0;shadow=0;comic=0;labelBackgroundColor=none;strokeWidth=1;">
      <mxGeometry x="341" y="4871" width="490" height="535" as="geometry" />
    </mxCell>
    <mxCell id="node11" parent="1" vertex="1" value="&lt;p style=&quot;margin:0px;margin-top:4px;text-align:center;&quot;&gt;&lt;i&gt;&amp;lt;&amp;lt;interface&amp;gt;&amp;gt;&lt;/i&gt;&lt;br/&gt;&lt;b&gt;Model&lt;/b&gt;&lt;/p&gt;&lt;hr size=&quot;1&quot;/&gt;&lt;p style=&quot;margin:0 0 0 4px;line-height:1.6;&quot;&gt;+ areAdjacent(Stop, Stop): boolean&lt;br/&gt;+ areAdjacent(String, String): boolean&lt;br/&gt;+ areAdjacent(Vertex&amp;lt;Stop&amp;gt;, Vertex&amp;lt;Stop&amp;gt;): boolean&lt;br/&gt;+ areNotAdjacent(Vertex&amp;lt;Stop&amp;gt;, Vertex&amp;lt;Stop&amp;gt;): boolean&lt;br/&gt;+ edges(): Collection&amp;lt;Edge&amp;lt;Route, Stop&amp;gt;&amp;gt;&lt;br/&gt;+ getEdge(Vertex&amp;lt;Stop&amp;gt;, Vertex&amp;lt;Stop&amp;gt;): Edge&amp;lt;Route, Stop&amp;gt;&lt;br/&gt;+ getNumberOfIsolatedStops(): int&lt;br/&gt;+ getNumberOfNotIsolatedStops(): int&lt;br/&gt;+ getNumberOfRoutes(): int&lt;br/&gt;+ getNumberOfRoutesByTransportType(): Map&amp;lt;TransportType, Integer&amp;gt;&lt;br/&gt;+ getNumberOfStops(): int&lt;br/&gt;+ getPathStrategy(): PathStrategy&lt;br/&gt;+ getRoutes(): Collection&amp;lt;Route&amp;gt;&lt;br/&gt;+ getStopCentrality(): List&amp;lt;Entry&amp;lt;Stop, Integer&amp;gt;&amp;gt;&lt;br/&gt;+ getStops(): Collection&amp;lt;Stop&amp;gt;&lt;br/&gt;+ getUserConfiguration(): UserConfiguration&lt;br/&gt;+ getVertex(Stop): Vertex&amp;lt;Stop&amp;gt;&lt;br/&gt;+ getVertex(String): Vertex&amp;lt;Stop&amp;gt;&lt;br/&gt;+ hasStop(String): boolean&lt;br/&gt;+ hasStop(Stop): boolean&lt;br/&gt;+ incidentEdges(Vertex&amp;lt;Stop&amp;gt;): Collection&amp;lt;Edge&amp;lt;Route, Stop&amp;gt;&amp;gt;&lt;br/&gt;+ insertEdge(Stop, Stop, Route): Edge&amp;lt;Route, Stop&amp;gt;&lt;br/&gt;+ insertVertex(Stop): Vertex&amp;lt;Stop&amp;gt;&lt;br/&gt;+ opposite(Vertex&amp;lt;Stop&amp;gt;, Edge&amp;lt;Route, Stop&amp;gt;): Vertex&amp;lt;Stop&amp;gt;&lt;br/&gt;+ removeVertex(Vertex&amp;lt;Stop&amp;gt;): Stop&lt;br/&gt;+ setPathStrategy(PathStrategy): void&lt;br/&gt;+ update(): void&lt;br/&gt;+ vertices(): Collection&amp;lt;Vertex&amp;lt;Stop&amp;gt;&amp;gt;&lt;/p&gt;" style="verticalAlign=top;align=left;overflow=fill;fontSize=14;fontFamily=Helvetica;html=1;rounded=0;shadow=0;comic=0;labelBackgroundColor=none;strokeWidth=1;">
      <mxGeometry x="1845" y="4003" width="483" height="711" as="geometry" />
    </mxCell>
    <mxCell id="node47" parent="1" vertex="1" value="&lt;p style=&quot;margin:0px;margin-top:4px;text-align:center;&quot;&gt;&lt;i&gt;&amp;lt;&amp;lt;interface&amp;gt;&amp;gt;&lt;/i&gt;&lt;br/&gt;&lt;b&gt;Observable&lt;/b&gt;&lt;/p&gt;&lt;hr size=&quot;1&quot;/&gt;&lt;p style=&quot;margin:0 0 0 4px;line-height:1.6;&quot;&gt;+ addObserver(Observer): void&lt;br/&gt;+ notifyObservers(Object): void&lt;br/&gt;+ removeObserver(Observer): void&lt;/p&gt;" style="verticalAlign=top;align=left;overflow=fill;fontSize=14;fontFamily=Helvetica;html=1;rounded=0;shadow=0;comic=0;labelBackgroundColor=none;strokeWidth=1;">
      <mxGeometry x="901" y="3283" width="250" height="139" as="geometry" />
    </mxCell>
    <mxCell id="node60" parent="1" vertex="1" value="&lt;p style=&quot;margin:0px;margin-top:4px;text-align:center;&quot;&gt;&lt;i&gt;&amp;lt;&amp;lt;interface&amp;gt;&amp;gt;&lt;/i&gt;&lt;br/&gt;&lt;b&gt;Observer&lt;/b&gt;&lt;/p&gt;&lt;hr size=&quot;1&quot;/&gt;&lt;p style=&quot;margin:0 0 0 4px;line-height:1.6;&quot;&gt;+ update(Observable, Object): void&lt;/p&gt;" style="verticalAlign=top;align=left;overflow=fill;fontSize=14;fontFamily=Helvetica;html=1;rounded=0;shadow=0;comic=0;labelBackgroundColor=none;strokeWidth=1;">
      <mxGeometry x="2001" y="1127" width="251" height="79" as="geometry" />
    </mxCell>
    <mxCell id="node41" parent="1" vertex="1" value="&lt;p style=&quot;margin:0px;margin-top:4px;text-align:center;&quot;&gt;&lt;b&gt;PRouteView&lt;/b&gt;&lt;/p&gt;&lt;hr size=&quot;1&quot;/&gt;&lt;p style=&quot;margin:0 0 0 4px;line-height:1.6;&quot;&gt;+ PRouteView(TransportMap): &lt;/p&gt;&lt;hr size=&quot;1&quot;/&gt;&lt;p style=&quot;margin:0 0 0 4px;line-height:1.6;&quot;&gt;- labelCost: Label&lt;br/&gt;- lbdistance: Label&lt;br/&gt;- lbduration: Label&lt;br/&gt;- model: TransportMap&lt;br/&gt;- observers: List&amp;lt;Observer&amp;gt;&lt;br/&gt;+ rbDistance: RadioButton&lt;br/&gt;+ rbDuration: RadioButton&lt;br/&gt;+ rbSustainability: RadioButton&lt;br/&gt;- tabPane: TabPane&lt;br/&gt;- textArea: TextArea&lt;br/&gt;- vboxActions: VBox&lt;br/&gt;- vboxLeft: VBox&lt;br/&gt;- vboxTrip: VBox&lt;/p&gt;&lt;hr size=&quot;1&quot;/&gt;&lt;p style=&quot;margin:0 0 0 4px;line-height:1.6;&quot;&gt;+ addObserver(Observer): void&lt;br/&gt;- createActionsTab(): void&lt;br/&gt;- createActionsTabInfo(): void&lt;br/&gt;- createTripTab(): void&lt;br/&gt;- createTripTabInfo(): void&lt;br/&gt;- getTripAndRoutesVBox(): VBox&lt;br/&gt;+ notifyObservers(Object): void&lt;br/&gt;+ removeObserver(Observer): void&lt;br/&gt;+ setTriggers(TransportMapController): void&lt;br/&gt;+ updateInformation(List&amp;lt;String&amp;gt;): void&lt;/p&gt;" style="verticalAlign=top;align=left;overflow=fill;fontSize=14;fontFamily=Helvetica;html=1;rounded=0;shadow=0;comic=0;labelBackgroundColor=none;strokeWidth=1;">
      <mxGeometry x="1312" y="4823" width="308" height="631" as="geometry" />
    </mxCell>
    <mxCell id="node23" parent="1" vertex="1" value="&lt;p style=&quot;margin:0px;margin-top:4px;text-align:center;&quot;&gt;&lt;b&gt;Panels&lt;/b&gt;&lt;/p&gt;&lt;hr size=&quot;1&quot;/&gt;&lt;p style=&quot;margin:0 0 0 4px;line-height:1.6;&quot;&gt;+ Panels(): &lt;/p&gt;&lt;hr size=&quot;1&quot;/&gt;&lt;p style=&quot;margin:0 0 0 4px;line-height:1.6;&quot;&gt;+ createGridPane(int, int, int, int): GridPane&lt;/p&gt;" style="verticalAlign=top;align=left;overflow=fill;fontSize=14;fontFamily=Helvetica;html=1;rounded=0;shadow=0;comic=0;labelBackgroundColor=none;strokeWidth=1;">
      <mxGeometry x="977" y="1311" width="298" height="103" as="geometry" />
    </mxCell>
    <mxCell id="node40" parent="1" vertex="1" value="&lt;p style=&quot;margin:0px;margin-top:4px;text-align:center;&quot;&gt;&lt;i&gt;&amp;lt;&amp;lt;enumeration&amp;gt;&amp;gt;&lt;/i&gt;&lt;br/&gt;&lt;b&gt;PathCriteria&lt;/b&gt;&lt;/p&gt;&lt;hr size=&quot;1&quot;/&gt;&lt;p style=&quot;margin:0 0 0 4px;line-height:1.6;&quot;&gt;- PathCriteria(String, String): &lt;/p&gt;&lt;hr size=&quot;1&quot;/&gt;&lt;p style=&quot;margin:0 0 0 4px;line-height:1.6;&quot;&gt;+ DISTANCE: &lt;br/&gt;+ DURATION: &lt;br/&gt;+ SUSTAINABILITY: &lt;br/&gt;- text: String&lt;br/&gt;- unit: String&lt;/p&gt;&lt;hr size=&quot;1&quot;/&gt;&lt;p style=&quot;margin:0 0 0 4px;line-height:1.6;&quot;&gt;+ getUnit(): String&lt;br/&gt;+ toString(): String&lt;br/&gt;+ valueOf(String): PathCriteria&lt;br/&gt;+ values(): PathCriteria[]&lt;/p&gt;" style="verticalAlign=top;align=left;overflow=fill;fontSize=14;fontFamily=Helvetica;html=1;rounded=0;shadow=0;comic=0;labelBackgroundColor=none;strokeWidth=1;">
      <mxGeometry x="1816" y="5851" width="220" height="295" as="geometry" />
    </mxCell>
    <mxCell id="node15" parent="1" vertex="1" value="&lt;p style=&quot;margin:0px;margin-top:4px;text-align:center;&quot;&gt;&lt;b&gt;PathCriteriaManager&lt;/b&gt;&lt;/p&gt;&lt;hr size=&quot;1&quot;/&gt;&lt;p style=&quot;margin:0 0 0 4px;line-height:1.6;&quot;&gt;+ PathCriteriaManager(): &lt;/p&gt;&lt;hr size=&quot;1&quot;/&gt;&lt;p style=&quot;margin:0 0 0 4px;line-height:1.6;&quot;&gt;- pathCriteria: PathCriteria&lt;/p&gt;&lt;hr size=&quot;1&quot;/&gt;&lt;p style=&quot;margin:0 0 0 4px;line-height:1.6;&quot;&gt;+ getPathCriteria(): PathCriteria&lt;br/&gt;+ setPathCriteria(PathCriteria): void&lt;/p&gt;" style="verticalAlign=top;align=left;overflow=fill;fontSize=14;fontFamily=Helvetica;html=1;rounded=0;shadow=0;comic=0;labelBackgroundColor=none;strokeWidth=1;">
      <mxGeometry x="1339" y="1283" width="255" height="151" as="geometry" />
    </mxCell>
    <mxCell id="node20" parent="1" vertex="1" value="&lt;p style=&quot;margin:0px;margin-top:4px;text-align:center;&quot;&gt;&lt;b&gt;PathResult&lt;/b&gt;&lt;/p&gt;&lt;hr size=&quot;1&quot;/&gt;&lt;p style=&quot;margin:0 0 0 4px;line-height:1.6;&quot;&gt;+ PathResult(double, double, double, List&amp;lt;Vertex&amp;lt;Stop&amp;gt;&amp;gt;, List&amp;lt;TransportType&amp;gt;, List&amp;lt;RouteInfo&amp;gt;): &lt;/p&gt;&lt;hr size=&quot;1&quot;/&gt;&lt;p style=&quot;margin:0 0 0 4px;line-height:1.6;&quot;&gt;- path: List&amp;lt;Vertex&amp;lt;Stop&amp;gt;&amp;gt;&lt;br/&gt;- pathInfo: List&amp;lt;RouteInfo&amp;gt;&lt;br/&gt;- totalCost: double&lt;br/&gt;- totalDistance: double&lt;br/&gt;- totalDuration: double&lt;br/&gt;- transportList: List&amp;lt;TransportType&amp;gt;&lt;/p&gt;&lt;hr size=&quot;1&quot;/&gt;&lt;p style=&quot;margin:0 0 0 4px;line-height:1.6;&quot;&gt;+ getPath(): List&amp;lt;Vertex&amp;lt;Stop&amp;gt;&amp;gt;&lt;br/&gt;+ getPathInfo(): List&amp;lt;RouteInfo&amp;gt;&lt;br/&gt;+ getRoundTrip(): PathResult&lt;br/&gt;+ getRoute(): String&lt;br/&gt;+ getTotalDistance(): double&lt;br/&gt;+ getTotalDuration(): double&lt;br/&gt;+ getTotalSustainability(): double&lt;br/&gt;+ getTransportList(): List&amp;lt;TransportType&amp;gt;&lt;br/&gt;+ pathDetails(): String&lt;br/&gt;+ toString(): String&lt;/p&gt;" style="verticalAlign=top;align=left;overflow=fill;fontSize=14;fontFamily=Helvetica;html=1;rounded=0;shadow=0;comic=0;labelBackgroundColor=none;strokeWidth=1;">
      <mxGeometry x="1375" y="2307" width="422" height="463" as="geometry" />
    </mxCell>
    <mxCell id="node21" parent="1" vertex="1" value="&lt;p style=&quot;margin:0px;margin-top:4px;text-align:center;&quot;&gt;&lt;b&gt;PathSegmentInfo&lt;/b&gt;&lt;/p&gt;&lt;hr size=&quot;1&quot;/&gt;&lt;p style=&quot;margin:0 0 0 4px;line-height:1.6;&quot;&gt;+ PathSegmentInfo(): &lt;/p&gt;&lt;hr size=&quot;1&quot;/&gt;&lt;p style=&quot;margin:0 0 0 4px;line-height:1.6;&quot;&gt;- predecessor: Vertex&amp;lt;Stop&amp;gt;&lt;br/&gt;- routeInfo: RouteInfo&lt;br/&gt;- transportType: TransportType&lt;/p&gt;&lt;hr size=&quot;1&quot;/&gt;&lt;p style=&quot;margin:0 0 0 4px;line-height:1.6;&quot;&gt;+ getPredecessor(): Vertex&amp;lt;Stop&amp;gt;&lt;br/&gt;+ getRouteInfo(): RouteInfo&lt;br/&gt;+ getTransportType(): TransportType&lt;br/&gt;+ setPredecessor(Vertex&amp;lt;Stop&amp;gt;): void&lt;br/&gt;+ setTransportType(TransportType): void&lt;br/&gt;+ toString(): String&lt;/p&gt;" style="verticalAlign=top;align=left;overflow=fill;fontSize=14;fontFamily=Helvetica;html=1;rounded=0;shadow=0;comic=0;labelBackgroundColor=none;strokeWidth=1;">
      <mxGeometry x="1201" y="3191" width="291" height="295" as="geometry" />
    </mxCell>
    <mxCell id="node3" parent="1" vertex="1" value="&lt;p style=&quot;margin:0px;margin-top:4px;text-align:center;&quot;&gt;&lt;i&gt;&amp;lt;&amp;lt;interface&amp;gt;&amp;gt;&lt;/i&gt;&lt;br/&gt;&lt;b&gt;PathStrategy&lt;/b&gt;&lt;/p&gt;&lt;hr size=&quot;1&quot;/&gt;&lt;p style=&quot;margin:0 0 0 4px;line-height:1.6;&quot;&gt;+ findLessCostPathBetweenTwoVertices(TransportMap, EnumSet&amp;lt;TransportType&amp;gt;, Vertex&amp;lt;Stop&amp;gt;, Vertex&amp;lt;Stop&amp;gt;): PathResult&lt;br/&gt;+ findLessCostPathBetweenTwoVerticesPersonalized(TransportMap, EnumSet&amp;lt;TransportType&amp;gt;, Vertex&amp;lt;Stop&amp;gt;, Vertex&amp;lt;Stop&amp;gt;, Vertex&amp;lt;Stop&amp;gt;[]): PathResult&lt;/p&gt;" style="verticalAlign=top;align=left;overflow=fill;fontSize=14;fontFamily=Helvetica;html=1;rounded=0;shadow=0;comic=0;labelBackgroundColor=none;strokeWidth=1;">
      <mxGeometry x="561" y="1115" width="490" height="109" as="geometry" />
    </mxCell>
    <mxCell id="node19" parent="1" vertex="1" value="&lt;p style=&quot;margin:0px;margin-top:4px;text-align:center;&quot;&gt;&lt;b&gt;PathStrategyFactory&lt;/b&gt;&lt;/p&gt;&lt;hr size=&quot;1&quot;/&gt;&lt;p style=&quot;margin:0 0 0 4px;line-height:1.6;&quot;&gt;+ PathStrategyFactory(): &lt;/p&gt;&lt;hr size=&quot;1&quot;/&gt;&lt;p style=&quot;margin:0 0 0 4px;line-height:1.6;&quot;&gt;+ create(PathCriteria): PathStrategy&lt;/p&gt;" style="verticalAlign=top;align=left;overflow=fill;fontSize=14;fontFamily=Helvetica;html=1;rounded=0;shadow=0;comic=0;labelBackgroundColor=none;strokeWidth=1;">
      <mxGeometry x="1178" y="1111" width="256" height="103" as="geometry" />
    </mxCell>
    <mxCell id="node64" parent="1" vertex="1" value="&lt;p style=&quot;margin:0px;margin-top:4px;text-align:center;&quot;&gt;&lt;b&gt;PathTabPane&lt;/b&gt;&lt;/p&gt;&lt;hr size=&quot;1&quot;/&gt;&lt;p style=&quot;margin:0 0 0 4px;line-height:1.6;&quot;&gt;+ PathTabPane(): &lt;/p&gt;&lt;hr size=&quot;1&quot;/&gt;&lt;p style=&quot;margin:0 0 0 4px;line-height:1.6;&quot;&gt;+ routesTab: Tab&lt;br/&gt;+ tripTab: Tab&lt;/p&gt;" style="verticalAlign=top;align=left;overflow=fill;fontSize=14;fontFamily=Helvetica;html=1;rounded=0;shadow=0;comic=0;labelBackgroundColor=none;strokeWidth=1;">
      <mxGeometry x="-172" y="6898" width="156" height="131" as="geometry" />
    </mxCell>
    <mxCell id="node37" parent="1" vertex="1" value="&lt;p style=&quot;margin:0px;margin-top:4px;text-align:center;&quot;&gt;&lt;b&gt;PathUtils&lt;/b&gt;&lt;/p&gt;&lt;hr size=&quot;1&quot;/&gt;&lt;p style=&quot;margin:0 0 0 4px;line-height:1.6;&quot;&gt;+ PathUtils(): &lt;/p&gt;&lt;hr size=&quot;1&quot;/&gt;&lt;p style=&quot;margin:0 0 0 4px;line-height:1.6;&quot;&gt;+ bfs(TransportMap, Vertex&amp;lt;Stop&amp;gt;): Collection&amp;lt;Vertex&amp;lt;Stop&amp;gt;&amp;gt;&lt;br/&gt;+ bfsLimited(TransportMap, Vertex&amp;lt;Stop&amp;gt;, int): Collection&amp;lt;Vertex&amp;lt;Stop&amp;gt;&amp;gt;&lt;br/&gt;+ dfs(TransportMap, Vertex&amp;lt;Stop&amp;gt;): Collection&amp;lt;Vertex&amp;lt;Stop&amp;gt;&amp;gt;&lt;br/&gt;+ getMinimumTransportCost(TransportMap, EnumSet&amp;lt;TransportType&amp;gt;, Edge&amp;lt;Route, Stop&amp;gt;, CostStrategy): Entry&amp;lt;TransportType, Double&amp;gt;&lt;br/&gt;+ setOtherCosts(RouteInfo, RouteInfo, RouteInfo, CostStrategy): void&lt;br/&gt;+ validateLessCostPathBetweenTwoVerticesParameters(TransportMap, EnumSet&amp;lt;TransportType&amp;gt;, Vertex&amp;lt;Stop&amp;gt;, Vertex&amp;lt;Stop&amp;gt;): void&lt;br/&gt;+ validateLessCostPathBetweenTwoVerticesPersonalizedParameters(TransportMap, EnumSet&amp;lt;TransportType&amp;gt;, Vertex&amp;lt;Stop&amp;gt;, Vertex&amp;lt;Stop&amp;gt;, Vertex&amp;lt;Stop&amp;gt;[]): void&lt;/p&gt;" style="verticalAlign=top;align=left;overflow=fill;fontSize=14;fontFamily=Helvetica;html=1;rounded=0;shadow=0;comic=0;labelBackgroundColor=none;strokeWidth=1;">
      <mxGeometry x="81" y="2419" width="571" height="239" as="geometry" />
    </mxCell>
    <mxCell id="node31" parent="1" vertex="1" value="&lt;p style=&quot;margin:0px;margin-top:4px;text-align:center;&quot;&gt;&lt;b&gt;PropertiesUtil&lt;/b&gt;&lt;/p&gt;&lt;hr size=&quot;1&quot;/&gt;&lt;p style=&quot;margin:0 0 0 4px;line-height:1.6;&quot;&gt;- PropertiesUtil(): &lt;/p&gt;&lt;hr size=&quot;1&quot;/&gt;&lt;p style=&quot;margin:0 0 0 4px;line-height:1.6;&quot;&gt;- instance: PropertiesUtil&lt;br/&gt;- properties: Properties&lt;/p&gt;&lt;hr size=&quot;1&quot;/&gt;&lt;p style=&quot;margin:0 0 0 4px;line-height:1.6;&quot;&gt;+ containsKey(String): boolean&lt;br/&gt;+ getInstance(): PropertiesUtil&lt;br/&gt;+ getProperty(String): String&lt;br/&gt;+ getProperty(String, String): String&lt;br/&gt;- loadProperties(): void&lt;/p&gt;" style="verticalAlign=top;align=left;overflow=fill;fontSize=14;fontFamily=Helvetica;html=1;rounded=0;shadow=0;comic=0;labelBackgroundColor=none;strokeWidth=1;">
      <mxGeometry x="400" y="775" width="253" height="247" as="geometry" />
    </mxCell>
    <mxCell id="node17" parent="1" vertex="1" value="&lt;p style=&quot;margin:0px;margin-top:4px;text-align:center;&quot;&gt;&lt;b&gt;Route&lt;/b&gt;&lt;/p&gt;&lt;hr size=&quot;1&quot;/&gt;&lt;p style=&quot;margin:0 0 0 4px;line-height:1.6;&quot;&gt;+ Route(): &lt;/p&gt;&lt;hr size=&quot;1&quot;/&gt;&lt;p style=&quot;margin:0 0 0 4px;line-height:1.6;&quot;&gt;- serialVersionUID: long&lt;br/&gt;- transportList: EnumMap&amp;lt;TransportType, RouteInfo&amp;gt;&lt;/p&gt;&lt;hr size=&quot;1&quot;/&gt;&lt;p style=&quot;margin:0 0 0 4px;line-height:1.6;&quot;&gt;+ addTransport(TransportType, double, double, double): Route&lt;br/&gt;+ addTransport(TransportType, RouteInfo): Route&lt;br/&gt;+ equals(Object): boolean&lt;br/&gt;+ getTransportDistance(TransportType): double&lt;br/&gt;+ getTransportDuration(TransportType): double&lt;br/&gt;+ getTransportInfo(TransportType): RouteInfo&lt;br/&gt;+ getTransportList(): Set&amp;lt;TransportType&amp;gt;&lt;br/&gt;+ getTransportMap(): EnumMap&amp;lt;TransportType, RouteInfo&amp;gt;&lt;br/&gt;+ getTransportSustainability(TransportType): double&lt;br/&gt;+ hasTransport(TransportType): boolean&lt;br/&gt;+ hashCode(): int&lt;br/&gt;+ isEmpty(): boolean&lt;br/&gt;+ removeTransport(TransportType): boolean&lt;br/&gt;+ setTransportInfo(TransportType, RouteInfo): Route&lt;br/&gt;+ setTransportInfo(TransportType, double, double, double): Route&lt;br/&gt;+ toString(): String&lt;/p&gt;" style="verticalAlign=top;align=left;overflow=fill;fontSize=14;fontFamily=Helvetica;html=1;rounded=0;shadow=0;comic=0;labelBackgroundColor=none;strokeWidth=1;">
      <mxGeometry x="1606" y="3083" width="440" height="511" as="geometry" />
    </mxCell>
    <mxCell id="node26" parent="1" vertex="1" value="&lt;p style=&quot;margin:0px;margin-top:4px;text-align:center;&quot;&gt;&lt;i&gt;&amp;lt;&amp;lt;interface&amp;gt;&amp;gt;&lt;/i&gt;&lt;br/&gt;&lt;b&gt;RouteCommand&lt;/b&gt;&lt;/p&gt;&lt;hr size=&quot;1&quot;/&gt;" style="verticalAlign=top;align=left;overflow=fill;fontSize=14;fontFamily=Helvetica;html=1;rounded=0;shadow=0;comic=0;labelBackgroundColor=none;strokeWidth=1;">
      <mxGeometry x="2259" y="324" width="174" height="35" as="geometry" />
    </mxCell>
    <mxCell id="node27" parent="1" vertex="1" value="&lt;p style=&quot;margin:0px;margin-top:4px;text-align:center;&quot;&gt;&lt;b&gt;RouteInfo&lt;/b&gt;&lt;/p&gt;&lt;hr size=&quot;1&quot;/&gt;&lt;p style=&quot;margin:0 0 0 4px;line-height:1.6;&quot;&gt;+ RouteInfo(double, double, double): &lt;/p&gt;&lt;hr size=&quot;1&quot;/&gt;&lt;p style=&quot;margin:0 0 0 4px;line-height:1.6;&quot;&gt;- distance: double&lt;br/&gt;- duration: double&lt;br/&gt;- serialVersionUID: long&lt;br/&gt;- sustainability: double&lt;/p&gt;&lt;hr size=&quot;1&quot;/&gt;&lt;p style=&quot;margin:0 0 0 4px;line-height:1.6;&quot;&gt;+ equals(Object): boolean&lt;br/&gt;+ getDistance(): double&lt;br/&gt;+ getDuration(): double&lt;br/&gt;+ getSustainability(): double&lt;br/&gt;+ hashCode(): int&lt;br/&gt;+ setDistance(double): RouteInfo&lt;br/&gt;+ setDuration(double): RouteInfo&lt;br/&gt;+ setSustainability(double): RouteInfo&lt;br/&gt;+ toString(): String&lt;/p&gt;" style="verticalAlign=top;align=left;overflow=fill;fontSize=14;fontFamily=Helvetica;html=1;rounded=0;shadow=0;comic=0;labelBackgroundColor=none;strokeWidth=1;">
      <mxGeometry x="733" y="2343" width="266" height="391" as="geometry" />
    </mxCell>
    <mxCell id="node39" parent="1" vertex="1" value="&lt;p style=&quot;margin:0px;margin-top:4px;text-align:center;&quot;&gt;&lt;i&gt;&amp;lt;&amp;lt;interface&amp;gt;&amp;gt;&lt;/i&gt;&lt;br/&gt;&lt;b&gt;RouteTransportTypeCommand&lt;/b&gt;&lt;/p&gt;&lt;hr size=&quot;1&quot;/&gt;" style="verticalAlign=top;align=left;overflow=fill;fontSize=14;fontFamily=Helvetica;html=1;rounded=0;shadow=0;comic=0;labelBackgroundColor=none;strokeWidth=1;">
      <mxGeometry x="1702" y="324" width="288" height="35" as="geometry" />
    </mxCell>
    <mxCell id="node62" parent="1" vertex="1" value="&lt;p style=&quot;margin:0px;margin-top:4px;text-align:center;&quot;&gt;&lt;b&gt;RoutesBox&lt;/b&gt;&lt;/p&gt;&lt;hr size=&quot;1&quot;/&gt;&lt;p style=&quot;margin:0 0 0 4px;line-height:1.6;&quot;&gt;+ RoutesBox(): &lt;/p&gt;&lt;hr size=&quot;1&quot;/&gt;&lt;p style=&quot;margin:0 0 0 4px;line-height:1.6;&quot;&gt;+ numberRoutesComboBox: ComboBox&amp;lt;Integer&amp;gt;&lt;br/&gt;+ numberRoutesLabel: Label&lt;br/&gt;+ routesButton: Button&lt;br/&gt;+ routesTextArea: TextArea&lt;br/&gt;+ stopComboBox: ComboBox&amp;lt;Vertex&amp;lt;Stop&amp;gt;&amp;gt;&lt;br/&gt;+ stopLabel: Label&lt;/p&gt;" style="verticalAlign=top;align=left;overflow=fill;fontSize=14;fontFamily=Helvetica;html=1;rounded=0;shadow=0;comic=0;labelBackgroundColor=none;strokeWidth=1;">
      <mxGeometry x="537" y="5890" width="339" height="217" as="geometry" />
    </mxCell>
    <mxCell id="node30" parent="1" vertex="1" value="&lt;p style=&quot;margin:0px;margin-top:4px;text-align:center;&quot;&gt;&lt;b&gt;SerializableEdge&lt;/b&gt;&lt;/p&gt;&lt;hr size=&quot;1&quot;/&gt;&lt;p style=&quot;margin:0 0 0 4px;line-height:1.6;&quot;&gt;+ SerializableEdge(Edge&amp;lt;Route, Stop&amp;gt;): &lt;/p&gt;&lt;hr size=&quot;1&quot;/&gt;&lt;p style=&quot;margin:0 0 0 4px;line-height:1.6;&quot;&gt;- destination: Stop&lt;br/&gt;- serialVersionUID: long&lt;br/&gt;- source: Stop&lt;/p&gt;&lt;hr size=&quot;1&quot;/&gt;&lt;p style=&quot;margin:0 0 0 4px;line-height:1.6;&quot;&gt;+ equals(Object): boolean&lt;br/&gt;+ getDestination(): Stop&lt;br/&gt;+ getSource(): Stop&lt;br/&gt;+ hashCode(): int&lt;/p&gt;" style="verticalAlign=top;align=left;overflow=fill;fontSize=14;fontFamily=Helvetica;html=1;rounded=0;shadow=0;comic=0;labelBackgroundColor=none;strokeWidth=1;">
      <mxGeometry x="-56" y="1955" width="285" height="247" as="geometry" />
    </mxCell>
    <mxCell id="node45" parent="1" vertex="1" value="&lt;p style=&quot;margin:0px;margin-top:4px;text-align:center;&quot;&gt;&lt;b&gt;StartView&lt;/b&gt;&lt;/p&gt;&lt;hr size=&quot;1&quot;/&gt;&lt;p style=&quot;margin:0 0 0 4px;line-height:1.6;&quot;&gt;+ StartView(TransportMap): &lt;/p&gt;&lt;hr size=&quot;1&quot;/&gt;&lt;p style=&quot;margin:0 0 0 4px;line-height:1.6;&quot;&gt;- actionGrid: ActionGrid&lt;br/&gt;- graph: TransportMap&lt;br/&gt;- observerList: List&amp;lt;Observer&amp;gt;&lt;br/&gt;- pathTabPane: PathTabPane&lt;br/&gt;- routesBox: RoutesBox&lt;br/&gt;- tripBox: TripBox&lt;/p&gt;&lt;hr size=&quot;1&quot;/&gt;&lt;p style=&quot;margin:0 0 0 4px;line-height:1.6;&quot;&gt;+ addObserver(Observer): void&lt;br/&gt;- getPathCriteria(): PathCriteria?&lt;br/&gt;- getTransportTypes(): EnumSet&amp;lt;TransportType&amp;gt;&lt;br/&gt;+ notifyObservers(Object): void&lt;br/&gt;+ removeObserver(Observer): void&lt;br/&gt;+ setTriggers(TransportMapController): void&lt;br/&gt;+ showPathResult(PathResult): void&lt;br/&gt;+ updateRoutesTextArea(Collection&amp;lt;Vertex&amp;lt;Stop&amp;gt;&amp;gt;): void&lt;/p&gt;" style="verticalAlign=top;align=left;overflow=fill;fontSize=14;fontFamily=Helvetica;html=1;rounded=0;shadow=0;comic=0;labelBackgroundColor=none;strokeWidth=1;">
      <mxGeometry x="-92" y="4931" width="397" height="415" as="geometry" />
    </mxCell>
    <mxCell id="node9" parent="1" vertex="1" value="&lt;p style=&quot;margin:0px;margin-top:4px;text-align:center;&quot;&gt;&lt;b&gt;Stop&lt;/b&gt;&lt;/p&gt;&lt;hr size=&quot;1&quot;/&gt;&lt;p style=&quot;margin:0 0 0 4px;line-height:1.6;&quot;&gt;+ Stop(String, String, double, double): &lt;/p&gt;&lt;hr size=&quot;1&quot;/&gt;&lt;p style=&quot;margin:0 0 0 4px;line-height:1.6;&quot;&gt;- code: String&lt;br/&gt;- latitude: double&lt;br/&gt;- longitude: double&lt;br/&gt;- name: String&lt;br/&gt;- serialVersionUID: long&lt;/p&gt;&lt;hr size=&quot;1&quot;/&gt;&lt;p style=&quot;margin:0 0 0 4px;line-height:1.6;&quot;&gt;+ equals(Object): boolean&lt;br/&gt;+ getCode(): String&lt;br/&gt;+ getLatitude(): double&lt;br/&gt;+ getLongitude(): double&lt;br/&gt;+ getName(): String&lt;br/&gt;+ hashCode(): int&lt;br/&gt;+ setCode(String): void&lt;br/&gt;+ setLatitude(double): void&lt;br/&gt;+ setLongitude(double): void&lt;br/&gt;+ setName(String): void&lt;br/&gt;+ toString(): String&lt;br/&gt;+ toStringAll(): String&lt;/p&gt;" style="verticalAlign=top;align=left;overflow=fill;fontSize=14;fontFamily=Helvetica;html=1;rounded=0;shadow=0;comic=0;labelBackgroundColor=none;strokeWidth=1;">
      <mxGeometry x="1931" y="2295" width="270" height="487" as="geometry" />
    </mxCell>
    <mxCell id="node48" parent="1" vertex="1" value="&lt;p style=&quot;margin:0px;margin-top:4px;text-align:center;&quot;&gt;&lt;b&gt;Subject&lt;/b&gt;&lt;/p&gt;&lt;hr size=&quot;1&quot;/&gt;&lt;p style=&quot;margin:0 0 0 4px;line-height:1.6;&quot;&gt;+ Subject(): &lt;/p&gt;&lt;hr size=&quot;1&quot;/&gt;&lt;p style=&quot;margin:0 0 0 4px;line-height:1.6;&quot;&gt;- observers: List&amp;lt;Observer&amp;gt;&lt;/p&gt;&lt;hr size=&quot;1&quot;/&gt;&lt;p style=&quot;margin:0 0 0 4px;line-height:1.6;&quot;&gt;+ addObserver(Observer): void&lt;br/&gt;+ notifyObservers(Object): void&lt;br/&gt;+ removeObserver(Observer): void&lt;/p&gt;" style="verticalAlign=top;align=left;overflow=fill;fontSize=14;fontFamily=Helvetica;html=1;rounded=0;shadow=0;comic=0;labelBackgroundColor=none;strokeWidth=1;">
      <mxGeometry x="1701" y="5051" width="250" height="175" as="geometry" />
    </mxCell>
    <mxCell id="node44" parent="1" vertex="1" value="&lt;p style=&quot;margin:0px;margin-top:4px;text-align:center;&quot;&gt;&lt;b&gt;SustainabilityCostStrategy&lt;/b&gt;&lt;/p&gt;&lt;hr size=&quot;1&quot;/&gt;&lt;p style=&quot;margin:0 0 0 4px;line-height:1.6;&quot;&gt;+ SustainabilityCostStrategy(): &lt;/p&gt;&lt;hr size=&quot;1&quot;/&gt;&lt;p style=&quot;margin:0 0 0 4px;line-height:1.6;&quot;&gt;- otherCosts: EnumSet&amp;lt;PathCriteria&amp;gt;&lt;br/&gt;- pathCriteria: PathCriteria&lt;/p&gt;&lt;hr size=&quot;1&quot;/&gt;&lt;p style=&quot;margin:0 0 0 4px;line-height:1.6;&quot;&gt;+ getCost(RouteInfo): double&lt;br/&gt;+ getOtherCosts(): EnumSet&amp;lt;PathCriteria&amp;gt;&lt;br/&gt;+ getPathCriteria(): PathCriteria&lt;br/&gt;+ setCost(RouteInfo, double): void&lt;/p&gt;" style="verticalAlign=top;align=left;overflow=fill;fontSize=14;fontFamily=Helvetica;html=1;rounded=0;shadow=0;comic=0;labelBackgroundColor=none;strokeWidth=1;">
      <mxGeometry x="2497" y="5887" width="299" height="223" as="geometry" />
    </mxCell>
    <mxCell id="node28" parent="1" vertex="1" value="&lt;p style=&quot;margin:0px;margin-top:4px;text-align:center;&quot;&gt;&lt;b&gt;TopMenu&lt;/b&gt;&lt;/p&gt;&lt;hr size=&quot;1&quot;/&gt;&lt;p style=&quot;margin:0 0 0 4px;line-height:1.6;&quot;&gt;+ TopMenu(): &lt;/p&gt;&lt;hr size=&quot;1&quot;/&gt;&lt;p style=&quot;margin:0 0 0 4px;line-height:1.6;&quot;&gt;- changeMapMenuDefault: MenuItem&lt;br/&gt;- changeMapMenuNight: MenuItem&lt;br/&gt;- changeMapMenuSatellite: MenuItem&lt;br/&gt;- changeMapMenuTerrain: MenuItem&lt;br/&gt;- exitMenuClose: MenuItem&lt;br/&gt;- menuBar: MenuBar&lt;br/&gt;- setupCleanMap: MenuItem&lt;br/&gt;- setupMenuBikeChangeTime: MenuItem&lt;br/&gt;- setupMenuDisableroute: MenuItem&lt;br/&gt;- setupMenuImport: MenuItem&lt;/p&gt;&lt;hr size=&quot;1&quot;/&gt;&lt;p style=&quot;margin:0 0 0 4px;line-height:1.6;&quot;&gt;- createMenu(String, MenuItem[]): Menu&lt;br/&gt;+ getMenuBar(): MenuBar&lt;br/&gt;+ setTriggers(TransportMapController): void&lt;/p&gt;" style="verticalAlign=top;align=left;overflow=fill;fontSize=14;fontFamily=Helvetica;html=1;rounded=0;shadow=0;comic=0;labelBackgroundColor=none;strokeWidth=1;">
      <mxGeometry x="532" y="3143" width="308" height="391" as="geometry" />
    </mxCell>
    <mxCell id="node55" parent="1" vertex="1" value="&lt;p style=&quot;margin:0px;margin-top:4px;text-align:center;&quot;&gt;&lt;b&gt;TopTabPane&lt;/b&gt;&lt;/p&gt;&lt;hr size=&quot;1&quot;/&gt;&lt;p style=&quot;margin:0 0 0 4px;line-height:1.6;&quot;&gt;+ TopTabPane(): &lt;/p&gt;&lt;hr size=&quot;1&quot;/&gt;&lt;p style=&quot;margin:0 0 0 4px;line-height:1.6;&quot;&gt;- loggerMap: Tab&lt;br/&gt;- metricTab: Tab&lt;br/&gt;- pRouteTab: Tab&lt;br/&gt;- startTab: Tab&lt;br/&gt;- tabPane: TabPane&lt;/p&gt;&lt;hr size=&quot;1&quot;/&gt;&lt;p style=&quot;margin:0 0 0 4px;line-height:1.6;&quot;&gt;+ getTabPane(): TabPane&lt;br/&gt;+ isPRView(): boolean&lt;br/&gt;+ setTabEvents(Runnable, Runnable, Runnable, Runnable): void&lt;/p&gt;" style="verticalAlign=top;align=left;overflow=fill;fontSize=14;fontFamily=Helvetica;html=1;rounded=0;shadow=0;comic=0;labelBackgroundColor=none;strokeWidth=1;">
      <mxGeometry x="-166" y="3203" width="424" height="271" as="geometry" />
    </mxCell>
    <mxCell id="node52" parent="1" vertex="1" value="&lt;p style=&quot;margin:0px;margin-top:4px;text-align:center;&quot;&gt;&lt;b&gt;TransportMap&lt;/b&gt;&lt;/p&gt;&lt;hr size=&quot;1&quot;/&gt;&lt;p style=&quot;margin:0 0 0 4px;line-height:1.6;&quot;&gt;+ TransportMap(Graph&amp;lt;Stop, Route&amp;gt;): &lt;/p&gt;&lt;hr size=&quot;1&quot;/&gt;&lt;p style=&quot;margin:0 0 0 4px;line-height:1.6;&quot;&gt;- graph: Graph&amp;lt;Stop, Route&amp;gt;&lt;br/&gt;- observers: List&amp;lt;Observer&amp;gt;&lt;br/&gt;- pathStrategy: PathStrategy&lt;br/&gt;- userConfiguration: UserConfiguration&lt;/p&gt;&lt;hr size=&quot;1&quot;/&gt;&lt;p style=&quot;margin:0 0 0 4px;line-height:1.6;&quot;&gt;+ addObserver(Observer): void&lt;br/&gt;+ areAdjacent(Vertex&amp;lt;Stop&amp;gt;, Vertex&amp;lt;Stop&amp;gt;): boolean&lt;br/&gt;+ areAdjacent(Stop, Stop): boolean&lt;br/&gt;+ areAdjacent(String, String): boolean&lt;br/&gt;+ areNotAdjacent(Vertex&amp;lt;Stop&amp;gt;, Vertex&amp;lt;Stop&amp;gt;): boolean&lt;br/&gt;+ edges(): Collection&amp;lt;Edge&amp;lt;Route, Stop&amp;gt;&amp;gt;&lt;br/&gt;+ getEdge(Vertex&amp;lt;Stop&amp;gt;, Vertex&amp;lt;Stop&amp;gt;): Edge&amp;lt;Route, Stop&amp;gt;&lt;br/&gt;+ getNumberOfIsolatedStops(): int&lt;br/&gt;+ getNumberOfNotIsolatedStops(): int&lt;br/&gt;+ getNumberOfRoutes(): int&lt;br/&gt;+ getNumberOfRoutesByTransportType(): Map&amp;lt;TransportType, Integer&amp;gt;&lt;br/&gt;+ getNumberOfStops(): int&lt;br/&gt;+ getPathStrategy(): PathStrategy&lt;br/&gt;+ getRoutes(): Collection&amp;lt;Route&amp;gt;&lt;br/&gt;+ getStopCentrality(): List&amp;lt;Entry&amp;lt;Stop, Integer&amp;gt;&amp;gt;&lt;br/&gt;+ getStops(): Collection&amp;lt;Stop&amp;gt;&lt;br/&gt;+ getUserConfiguration(): UserConfiguration&lt;br/&gt;+ getVertex(String): Vertex&amp;lt;Stop&amp;gt;&lt;br/&gt;+ getVertex(Stop): Vertex&amp;lt;Stop&amp;gt;&lt;br/&gt;+ hasStop(Stop): boolean&lt;br/&gt;+ hasStop(String): boolean&lt;br/&gt;+ incidentEdges(Vertex&amp;lt;Stop&amp;gt;): Collection&amp;lt;Edge&amp;lt;Route, Stop&amp;gt;&amp;gt;&lt;br/&gt;+ insertEdge(Stop, Stop, Route): Edge&amp;lt;Route, Stop&amp;gt;&lt;br/&gt;+ insertVertex(Stop): Vertex&amp;lt;Stop&amp;gt;&lt;br/&gt;+ loadUserConfiguration(): void&lt;br/&gt;+ notifyObservers(Object): void&lt;br/&gt;+ opposite(Vertex&amp;lt;Stop&amp;gt;, Edge&amp;lt;Route, Stop&amp;gt;): Vertex&amp;lt;Stop&amp;gt;&lt;br/&gt;+ removeObserver(Observer): void&lt;br/&gt;+ removeVertex(Vertex&amp;lt;Stop&amp;gt;): Stop&lt;br/&gt;+ setPathStrategy(PathStrategy): void&lt;br/&gt;+ toString(): String&lt;br/&gt;+ update(): void&lt;br/&gt;+ vertices(): Collection&amp;lt;Vertex&amp;lt;Stop&amp;gt;&amp;gt;&lt;/p&gt;" style="verticalAlign=top;align=left;overflow=fill;fontSize=14;fontFamily=Helvetica;html=1;rounded=0;shadow=0;comic=0;labelBackgroundColor=none;strokeWidth=1;">
      <mxGeometry x="1425" y="6475" width="483" height="967" as="geometry" />
    </mxCell>
    <mxCell id="node51" parent="1" vertex="1" value="&lt;p style=&quot;margin:0px;margin-top:4px;text-align:center;&quot;&gt;&lt;b&gt;TransportMapController&lt;/b&gt;&lt;/p&gt;&lt;hr size=&quot;1&quot;/&gt;&lt;p style=&quot;margin:0 0 0 4px;line-height:1.6;&quot;&gt;+ TransportMapController(TransportMap, TransportMapGUI): &lt;/p&gt;&lt;hr size=&quot;1&quot;/&gt;&lt;p style=&quot;margin:0 0 0 4px;line-height:1.6;&quot;&gt;- model: TransportMap&lt;br/&gt;- userConfiguration: UserConfiguration&lt;br/&gt;- userConfigurationManager: UserConfigurationManager&lt;br/&gt;- view: TransportMapGUI&lt;/p&gt;&lt;hr size=&quot;1&quot;/&gt;&lt;p style=&quot;margin:0 0 0 4px;line-height:1.6;&quot;&gt;+ changeBicycleDurationScale(double): void&lt;br/&gt;+ changeMap(MapType): void&lt;br/&gt;+ clearMap(): void&lt;br/&gt;+ disableRoute(Edge&amp;lt;Route, Stop&amp;gt;): void&lt;br/&gt;+ disableTransportType(Edge&amp;lt;Route, Stop&amp;gt;, TransportType): void&lt;br/&gt;+ displayBikeChangeTime(): void&lt;br/&gt;+ displayDisableRoute(): void&lt;br/&gt;+ enableRoute(Edge&amp;lt;Route, Stop&amp;gt;): void&lt;br/&gt;+ enableTransportType(Edge&amp;lt;Route, Stop&amp;gt;, TransportType): void&lt;br/&gt;+ exitApplication(): void&lt;br/&gt;+ getView(): TransportMapGUI&lt;br/&gt;+ importData(): void&lt;br/&gt;+ isPRView(): boolean&lt;br/&gt;+ mapActionNotifyPRouteObservers(String): void&lt;br/&gt;+ mapActionUpdatePersonalizedPath(List&amp;lt;String&amp;gt;): void&lt;br/&gt;+ mapActionVisualizeGraphColors(PathResult): void&lt;br/&gt;+ resetDisabledRoutes(): void&lt;br/&gt;+ showError(String): void&lt;br/&gt;+ showInfo(String): void&lt;br/&gt;+ showMetricCentrality(): void&lt;br/&gt;+ showMetricNumberRoutes(): void&lt;br/&gt;+ showMetricNumberStops(): void&lt;br/&gt;+ showMetricTop5(): void&lt;br/&gt;+ showRouteInfo(Edge&amp;lt;Route, Stop&amp;gt;): void&lt;br/&gt;+ showStopInfo(Vertex&amp;lt;Stop&amp;gt;): void&lt;br/&gt;+ startActionLessCostPathBetweenTwoVertices(PathCriteria, EnumSet&amp;lt;TransportType&amp;gt;, Vertex&amp;lt;Stop&amp;gt;, Vertex&amp;lt;Stop&amp;gt;): void&lt;br/&gt;+ startActionStopsMaxRoutesApart(Vertex&amp;lt;Stop&amp;gt;, int): void&lt;br/&gt;+ undoChangeBicycleDurationScale(): double&lt;br/&gt;+ undoChangesOnDisabledRoutes(): void&lt;br/&gt;+ undoChangesOnDisabledTransportTypes(): void&lt;/p&gt;" style="verticalAlign=top;align=left;overflow=fill;fontSize=14;fontFamily=Helvetica;html=1;rounded=0;shadow=0;comic=0;labelBackgroundColor=none;strokeWidth=1;">
      <mxGeometry x="940" y="5551" width="452" height="895" as="geometry" />
    </mxCell>
    <mxCell id="node2" parent="1" vertex="1" value="&lt;p style=&quot;margin:0px;margin-top:4px;text-align:center;&quot;&gt;&lt;b&gt;TransportMapFacade&lt;/b&gt;&lt;/p&gt;&lt;hr size=&quot;1&quot;/&gt;&lt;p style=&quot;margin:0 0 0 4px;line-height:1.6;&quot;&gt;+ TransportMapFacade(): &lt;/p&gt;&lt;hr size=&quot;1&quot;/&gt;&lt;p style=&quot;margin:0 0 0 4px;line-height:1.6;&quot;&gt;- CSS_FILE: String&lt;br/&gt;- controller: TransportMapController&lt;/p&gt;&lt;hr size=&quot;1&quot;/&gt;&lt;p style=&quot;margin:0 0 0 4px;line-height:1.6;&quot;&gt;+ getController(): TransportMapController&lt;br/&gt;+ getView(): Parent&lt;br/&gt;+ start(Stage): void&lt;br/&gt;+ start(): void&lt;/p&gt;" style="verticalAlign=top;align=left;overflow=fill;fontSize=14;fontFamily=Helvetica;html=1;rounded=0;shadow=0;comic=0;labelBackgroundColor=none;strokeWidth=1;">
      <mxGeometry x="-140" y="-13" width="292" height="223" as="geometry" />
    </mxCell>
    <mxCell id="node32" parent="1" vertex="1" value="&lt;p style=&quot;margin:0px;margin-top:4px;text-align:center;&quot;&gt;&lt;i&gt;&amp;lt;&amp;lt;interface&amp;gt;&amp;gt;&lt;/i&gt;&lt;br/&gt;&lt;b&gt;TransportMapGUI&lt;/b&gt;&lt;/p&gt;&lt;hr size=&quot;1&quot;/&gt;&lt;p style=&quot;margin:0 0 0 4px;line-height:1.6;&quot;&gt;+ changeMap(MapType): void&lt;br/&gt;+ clearMap(): void&lt;br/&gt;+ displayBikeChangeTime(): void&lt;br/&gt;+ displayDisableRoute(): void&lt;br/&gt;+ initGraphDisplay(): void&lt;br/&gt;+ isPRView(): boolean&lt;br/&gt;+ setTriggers(TransportMapController): void&lt;br/&gt;+ showError(String): void&lt;br/&gt;+ showInfo(String): void&lt;br/&gt;+ showMetricCentrality(List&amp;lt;Entry&amp;lt;Stop, Integer&amp;gt;&amp;gt;): void&lt;br/&gt;+ showMetricNumberRoutes(int, Map&amp;lt;TransportType, Integer&amp;gt;): void&lt;br/&gt;+ showMetricNumberStops(int, int, int): void&lt;br/&gt;+ showMetricTop5(List&amp;lt;Entry&amp;lt;Stop, Integer&amp;gt;&amp;gt;): void&lt;br/&gt;+ showRouteInfo(Edge&amp;lt;Route, Stop&amp;gt;): void&lt;br/&gt;+ showStopInfo(Stop): void&lt;/p&gt;" style="verticalAlign=top;align=left;overflow=fill;fontSize=14;fontFamily=Helvetica;html=1;rounded=0;shadow=0;comic=0;labelBackgroundColor=none;strokeWidth=1;">
      <mxGeometry x="2095" y="1539" width="462" height="399" as="geometry" />
    </mxCell>
    <mxCell id="node38" parent="1" vertex="1" value="&lt;p style=&quot;margin:0px;margin-top:4px;text-align:center;&quot;&gt;&lt;i&gt;&amp;lt;&amp;lt;enumeration&amp;gt;&amp;gt;&lt;/i&gt;&lt;br/&gt;&lt;b&gt;TransportType&lt;/b&gt;&lt;/p&gt;&lt;hr size=&quot;1&quot;/&gt;&lt;p style=&quot;margin:0 0 0 4px;line-height:1.6;&quot;&gt;- TransportType(String): &lt;/p&gt;&lt;hr size=&quot;1&quot;/&gt;&lt;p style=&quot;margin:0 0 0 4px;line-height:1.6;&quot;&gt;+ BICYCLE: &lt;br/&gt;+ BOAT: &lt;br/&gt;+ BUS: &lt;br/&gt;+ TRAIN: &lt;br/&gt;+ WALK: &lt;br/&gt;- text: String&lt;/p&gt;&lt;hr size=&quot;1&quot;/&gt;&lt;p style=&quot;margin:0 0 0 4px;line-height:1.6;&quot;&gt;+ toString(): String&lt;br/&gt;+ valueOf(String): TransportType&lt;br/&gt;+ values(): TransportType[]&lt;/p&gt;" style="verticalAlign=top;align=left;overflow=fill;fontSize=14;fontFamily=Helvetica;html=1;rounded=0;shadow=0;comic=0;labelBackgroundColor=none;strokeWidth=1;">
      <mxGeometry x="2167" y="5851" width="239" height="295" as="geometry" />
    </mxCell>
    <mxCell id="node63" parent="1" vertex="1" value="&lt;p style=&quot;margin:0px;margin-top:4px;text-align:center;&quot;&gt;&lt;b&gt;TripBox&lt;/b&gt;&lt;/p&gt;&lt;hr size=&quot;1&quot;/&gt;&lt;p style=&quot;margin:0 0 0 4px;line-height:1.6;&quot;&gt;+ TripBox(): &lt;/p&gt;&lt;hr size=&quot;1&quot;/&gt;&lt;p style=&quot;margin:0 0 0 4px;line-height:1.6;&quot;&gt;+ distanceLabel: Label&lt;br/&gt;+ durationLabel: Label&lt;br/&gt;+ sustainabilityLabel: Label&lt;br/&gt;+ tripTextArea: TextArea&lt;/p&gt;" style="verticalAlign=top;align=left;overflow=fill;fontSize=14;fontFamily=Helvetica;html=1;rounded=0;shadow=0;comic=0;labelBackgroundColor=none;strokeWidth=1;">
      <mxGeometry x="806" y="6874" width="200" height="169" as="geometry" />
    </mxCell>
    <mxCell id="node53" parent="1" vertex="1" value="&lt;p style=&quot;margin:0px;margin-top:4px;text-align:center;&quot;&gt;&lt;b&gt;UserConfiguration&lt;/b&gt;&lt;/p&gt;&lt;hr size=&quot;1&quot;/&gt;&lt;p style=&quot;margin:0 0 0 4px;line-height:1.6;&quot;&gt;+ UserConfiguration(EdgeConverter): &lt;/p&gt;&lt;hr size=&quot;1&quot;/&gt;&lt;p style=&quot;margin:0 0 0 4px;line-height:1.6;&quot;&gt;- CONFIGURATION_FILE: String&lt;br/&gt;- MAX_BICYCLE_DURATION_SCALE: double&lt;br/&gt;- MIN_BICYCLE_DURATION_SCALE: double&lt;br/&gt;- bicycleDurationScale: double&lt;br/&gt;- disabledRoutes: Set&amp;lt;Edge&amp;lt;Route, Stop&amp;gt;&amp;gt;&lt;br/&gt;- disabledTransportTypes: Map&amp;lt;Edge&amp;lt;Route, Stop&amp;gt;, EnumSet&amp;lt;TransportType&amp;gt;&amp;gt;&lt;br/&gt;+ edgeConverter: EdgeConverter&lt;br/&gt;- serialVersionUID: long&lt;/p&gt;&lt;hr size=&quot;1&quot;/&gt;&lt;p style=&quot;margin:0 0 0 4px;line-height:1.6;&quot;&gt;+ addDisabledRoute(Edge&amp;lt;Route, Stop&amp;gt;): void&lt;br/&gt;+ addDisabledTransportType(Edge&amp;lt;Route, Stop&amp;gt;, TransportType): void&lt;br/&gt;+ applyBicycleDurationScale(double): double&lt;br/&gt;+ getBicycleDurationScale(): double&lt;br/&gt;+ getDisabledRoutes(): String&lt;br/&gt;+ getDisabledTransportTypes(): String&lt;br/&gt;+ isRouteDisabled(Edge&amp;lt;Route, Stop&amp;gt;): boolean&lt;br/&gt;+ isTransportTypeDisabled(Edge&amp;lt;Route, Stop&amp;gt;, TransportType): boolean&lt;br/&gt;+ loadFromFile(TransportMap): UserConfiguration&lt;br/&gt;- readObject(ObjectInputStream): void&lt;br/&gt;+ removeDisabledRoute(Edge&amp;lt;Route, Stop&amp;gt;): void&lt;br/&gt;+ removeDisabledTransportType(Edge&amp;lt;Route, Stop&amp;gt;, TransportType): void&lt;br/&gt;+ resetDisabledRoutes(): void&lt;br/&gt;+ routeHasDisabledTransportType(Edge&amp;lt;Route, Stop&amp;gt;): boolean&lt;br/&gt;+ saveToFile(): void&lt;br/&gt;+ setBicycleDurationScale(double): void&lt;br/&gt;+ toString(): String&lt;br/&gt;- writeObject(ObjectOutputStream): void&lt;/p&gt;" style="verticalAlign=top;align=left;overflow=fill;fontSize=14;fontFamily=Helvetica;html=1;rounded=0;shadow=0;comic=0;labelBackgroundColor=none;strokeWidth=1;">
      <mxGeometry x="137" y="6607" width="539" height="703" as="geometry" />
    </mxCell>
    <mxCell id="node22" parent="1" vertex="1" value="&lt;p style=&quot;margin:0px;margin-top:4px;text-align:center;&quot;&gt;&lt;b&gt;UserConfigurationManager&lt;/b&gt;&lt;/p&gt;&lt;hr size=&quot;1&quot;/&gt;&lt;p style=&quot;margin:0 0 0 4px;line-height:1.6;&quot;&gt;+ UserConfigurationManager(): &lt;/p&gt;&lt;hr size=&quot;1&quot;/&gt;&lt;p style=&quot;margin:0 0 0 4px;line-height:1.6;&quot;&gt;- commands: Map&amp;lt;Class&amp;lt;Command&amp;gt;, Deque&amp;lt;Command&amp;gt;&amp;gt;&lt;/p&gt;&lt;hr size=&quot;1&quot;/&gt;&lt;p style=&quot;margin:0 0 0 4px;line-height:1.6;&quot;&gt;+ execute(Command): void&lt;br/&gt;+ getLastRouteCommand(Class&amp;lt;Command&amp;gt;): String&lt;br/&gt;+ resetDisabledRoutes(UserConfiguration): void&lt;br/&gt;+ toString(): String&lt;br/&gt;+ undo(Class&amp;lt;Command&amp;gt;): void&lt;/p&gt;" style="verticalAlign=top;align=left;overflow=fill;fontSize=14;fontFamily=Helvetica;html=1;rounded=0;shadow=0;comic=0;labelBackgroundColor=none;strokeWidth=1;">
      <mxGeometry x="543" y="487" width="406" height="223" as="geometry" />
    </mxCell>
    <mxCell id="node13" parent="1" vertex="1" value="&lt;p style=&quot;margin:0px;margin-top:4px;text-align:center;&quot;&gt;&lt;b&gt;Windows&lt;/b&gt;&lt;/p&gt;&lt;hr size=&quot;1&quot;/&gt;&lt;p style=&quot;margin:0 0 0 4px;line-height:1.6;&quot;&gt;+ Windows(): &lt;/p&gt;&lt;hr size=&quot;1&quot;/&gt;&lt;p style=&quot;margin:0 0 0 4px;line-height:1.6;&quot;&gt;- applyStylesheet(Scene, String): void&lt;br/&gt;+ createErrorAlert(String): Alert&lt;br/&gt;+ createInfoAlert(String): Alert&lt;br/&gt;+ createPopup(Pane, double, double, String, Pane): Stage&lt;/p&gt;" style="verticalAlign=top;align=left;overflow=fill;fontSize=14;fontFamily=Helvetica;html=1;rounded=0;shadow=0;comic=0;labelBackgroundColor=none;strokeWidth=1;">
      <mxGeometry x="1652" y="1275" width="388" height="167" as="geometry" />
    </mxCell>
    <mxCell id="edge29" edge="1" value="" parent="1" source="node61" target="node45" style="html=1;rounded=1;edgeStyle=orthogonalEdgeStyle;dashed=0;startArrow=circlePlus;startFill=0;endArrow=none;strokeColor=#820000;exitX=0.000;exitY=0.500;exitDx=0;exitDy=0;entryX=0.500;entryY=1.000;entryDx=0;entryDy=0;">
      <mxGeometry width="50" height="50" relative="1" as="geometry">
        <Array as="points">
          <mxPoint x="-103" y="5998" />
          <mxPoint x="-103" y="5812" />
          <mxPoint x="106" y="5812" />
        </Array>
      </mxGeometry>
    </mxCell>
    <mxCell id="edge24" edge="1" value="" parent="1" source="node6" target="node3" style="html=1;rounded=1;edgeStyle=orthogonalEdgeStyle;dashed=1;startArrow=none;endArrow=block;endSize=12;strokeColor=#008200;exitX=1.000;exitY=0.500;exitDx=0;exitDy=0;entryX=0.441;entryY=1.001;entryDx=0;entryDy=0;">
      <mxGeometry width="50" height="50" relative="1" as="geometry">
        <Array as="points">
          <mxPoint x="806" y="1738" />
          <mxPoint x="806" y="1590" />
          <mxPoint x="777" y="1590" />
        </Array>
      </mxGeometry>
    </mxCell>
    <mxCell id="edge23" edge="1" value="" parent="1" source="node35" target="node36" style="html=1;rounded=1;edgeStyle=orthogonalEdgeStyle;dashed=0;startArrow=none;endArrow=block;endSize=12;strokeColor=#008200;exitX=0.500;exitY=0.002;exitDx=0;exitDy=0;entryX=0.500;entryY=1.001;entryDx=0;entryDy=0;">
      <mxGeometry width="50" height="50" relative="1" as="geometry">
        <Array as="points" />
      </mxGeometry>
    </mxCell>
    <mxCell id="edge10" edge="1" value="" parent="1" source="node29" target="node47" style="html=1;rounded=1;edgeStyle=orthogonalEdgeStyle;dashed=1;startArrow=none;endArrow=block;endSize=12;strokeColor=#008200;exitX=0.500;exitY=0.000;exitDx=0;exitDy=0;entryX=0.776;entryY=1.000;entryDx=0;entryDy=0;">
      <mxGeometry width="50" height="50" relative="1" as="geometry">
        <Array as="points">
          <mxPoint x="1106" y="4802" />
          <mxPoint x="1095" y="4802" />
        </Array>
      </mxGeometry>
    </mxCell>
    <mxCell id="edge27" edge="1" value="" parent="1" source="node46" target="node35" style="html=1;rounded=1;edgeStyle=orthogonalEdgeStyle;dashed=1;startArrow=none;endArrow=block;endSize=12;strokeColor=#008200;exitX=0.500;exitY=0.000;exitDx=0;exitDy=0;entryX=0.500;entryY=1.001;entryDx=0;entryDy=0;">
      <mxGeometry width="50" height="50" relative="1" as="geometry">
        <Array as="points" />
      </mxGeometry>
    </mxCell>
    <mxCell id="edge22" edge="1" value="" parent="1" source="node49" target="node3" style="html=1;rounded=1;edgeStyle=orthogonalEdgeStyle;dashed=1;startArrow=none;endArrow=block;endSize=12;strokeColor=#008200;exitX=1.000;exitY=0.500;exitDx=0;exitDy=0;entryX=0.441;entryY=1.001;entryDx=0;entryDy=0;">
      <mxGeometry width="50" height="50" relative="1" as="geometry">
        <Array as="points">
          <mxPoint x="1166" y="2078" />
          <mxPoint x="1166" y="1951" />
          <mxPoint x="806" y="1951" />
          <mxPoint x="806" y="1590" />
          <mxPoint x="777" y="1590" />
        </Array>
      </mxGeometry>
    </mxCell>
    <mxCell id="edge26" edge="1" value="" parent="1" source="node54" target="node3" style="html=1;rounded=1;edgeStyle=orthogonalEdgeStyle;dashed=1;startArrow=none;endArrow=block;endSize=12;strokeColor=#008200;exitX=0.000;exitY=0.500;exitDx=0;exitDy=0;entryX=0.441;entryY=1.001;entryDx=0;entryDy=0;">
      <mxGeometry width="50" height="50" relative="1" as="geometry">
        <Array as="points">
          <mxPoint x="806" y="1738" />
          <mxPoint x="806" y="1590" />
          <mxPoint x="777" y="1590" />
        </Array>
      </mxGeometry>
    </mxCell>
    <mxCell id="edge15" edge="1" value="" parent="1" source="node58" target="node3" style="html=1;rounded=1;edgeStyle=orthogonalEdgeStyle;dashed=1;startArrow=none;endArrow=block;endSize=12;strokeColor=#008200;exitX=0.000;exitY=0.500;exitDx=0;exitDy=0;entryX=0.441;entryY=1.001;entryDx=0;entryDy=0;">
      <mxGeometry width="50" height="50" relative="1" as="geometry">
        <Array as="points">
          <mxPoint x="1166" y="2078" />
          <mxPoint x="1166" y="1951" />
          <mxPoint x="806" y="1951" />
          <mxPoint x="806" y="1590" />
          <mxPoint x="777" y="1590" />
        </Array>
      </mxGeometry>
    </mxCell>
    <mxCell id="edge25" edge="1" value="" parent="1" source="node43" target="node26" style="html=1;rounded=1;edgeStyle=orthogonalEdgeStyle;dashed=1;startArrow=none;endArrow=block;endSize=12;strokeColor=#008200;exitX=0.558;exitY=0.000;exitDx=0;exitDy=0;entryX=0.000;entryY=0.500;entryDx=0;entryDy=0;">
      <mxGeometry width="50" height="50" relative="1" as="geometry">
        <Array as="points">
          <mxPoint x="2132" y="715" />
          <mxPoint x="2099" y="715" />
          <mxPoint x="2099" y="338" />
        </Array>
      </mxGeometry>
    </mxCell>
    <mxCell id="edge13" edge="1" value="" parent="1" source="node50" target="node39" style="html=1;rounded=1;edgeStyle=orthogonalEdgeStyle;dashed=1;startArrow=none;endArrow=block;endSize=12;strokeColor=#008200;exitX=1.000;exitY=0.108;exitDx=0;exitDy=0;entryX=0.000;entryY=0.500;entryDx=0;entryDy=0;">
      <mxGeometry width="50" height="50" relative="1" as="geometry">
        <Array as="points">
          <mxPoint x="1535" y="811" />
          <mxPoint x="1535" y="338" />
        </Array>
      </mxGeometry>
    </mxCell>
    <mxCell id="edge17" edge="1" value="" parent="1" source="node7" target="node47" style="html=1;rounded=1;edgeStyle=orthogonalEdgeStyle;dashed=1;startArrow=none;endArrow=block;endSize=12;strokeColor=#008200;exitX=0.500;exitY=1.000;exitDx=0;exitDy=0;entryX=0.776;entryY=1.000;entryDx=0;entryDy=0;">
      <mxGeometry width="50" height="50" relative="1" as="geometry">
        <Array as="points">
          <mxPoint x="326" y="4802" />
          <mxPoint x="1095" y="4802" />
        </Array>
      </mxGeometry>
    </mxCell>
    <mxCell id="edge19" edge="1" value="" parent="1" source="node42" target="node5" style="html=1;rounded=1;edgeStyle=orthogonalEdgeStyle;dashed=1;startArrow=none;endArrow=block;endSize=12;strokeColor=#008200;exitX=0.500;exitY=1.000;exitDx=0;exitDy=0;entryX=0.000;entryY=0.500;entryDx=0;entryDy=0;">
      <mxGeometry width="50" height="50" relative="1" as="geometry">
        <Array as="points">
          <mxPoint x="2466" y="7095" />
          <mxPoint x="2299" y="7095" />
          <mxPoint x="2299" y="6482" />
          <mxPoint x="2451" y="6482" />
          <mxPoint x="2451" y="5138" />
        </Array>
      </mxGeometry>
    </mxCell>
    <mxCell id="edge18" edge="1" value="" parent="1" source="node12" target="node5" style="html=1;rounded=1;edgeStyle=orthogonalEdgeStyle;dashed=1;startArrow=none;endArrow=block;endSize=12;strokeColor=#008200;exitX=0.500;exitY=1.000;exitDx=0;exitDy=0;entryX=0.000;entryY=0.500;entryDx=0;entryDy=0;">
      <mxGeometry width="50" height="50" relative="1" as="geometry">
        <Array as="points">
          <mxPoint x="2106" y="7095" />
          <mxPoint x="2299" y="7095" />
          <mxPoint x="2299" y="6482" />
          <mxPoint x="2451" y="6482" />
          <mxPoint x="2451" y="5138" />
        </Array>
      </mxGeometry>
    </mxCell>
    <mxCell id="edge14" edge="1" value="" parent="1" source="node0" target="node26" style="html=1;rounded=1;edgeStyle=orthogonalEdgeStyle;dashed=1;startArrow=none;endArrow=block;endSize=12;strokeColor=#008200;exitX=0.000;exitY=0.500;exitDx=0;exitDy=0;entryX=0.000;entryY=0.500;entryDx=0;entryDy=0;">
      <mxGeometry width="50" height="50" relative="1" as="geometry">
        <Array as="points">
          <mxPoint x="2099" y="598" />
          <mxPoint x="2099" y="338" />
        </Array>
      </mxGeometry>
    </mxCell>
    <mxCell id="edge1" edge="1" value="" parent="1" source="node33" target="node39" style="html=1;rounded=1;edgeStyle=orthogonalEdgeStyle;dashed=1;startArrow=none;endArrow=block;endSize=12;strokeColor=#008200;exitX=0.000;exitY=0.500;exitDx=0;exitDy=0;entryX=0.000;entryY=0.500;entryDx=0;entryDy=0;">
      <mxGeometry width="50" height="50" relative="1" as="geometry">
        <Array as="points">
          <mxPoint x="1535" y="598" />
          <mxPoint x="1535" y="338" />
        </Array>
      </mxGeometry>
    </mxCell>
    <mxCell id="edge7" edge="1" value="" parent="1" source="node1" target="node60" style="html=1;rounded=1;edgeStyle=orthogonalEdgeStyle;dashed=1;startArrow=none;endArrow=block;endSize=12;strokeColor=#008200;exitX=1.000;exitY=0.500;exitDx=0;exitDy=0;entryX=0.500;entryY=1.001;entryDx=0;entryDy=0;">
      <mxGeometry width="50" height="50" relative="1" as="geometry">
        <Array as="points">
          <mxPoint x="2068" y="1738" />
          <mxPoint x="2068" y="1521" />
          <mxPoint x="2126" y="1521" />
        </Array>
      </mxGeometry>
    </mxCell>
    <mxCell id="edge4" edge="1" value="" parent="1" source="node16" target="node60" style="html=1;rounded=1;edgeStyle=orthogonalEdgeStyle;dashed=1;startArrow=none;endArrow=block;endSize=12;strokeColor=#008200;exitX=0.391;exitY=0.000;exitDx=0;exitDy=0;entryX=0.500;entryY=1.001;entryDx=0;entryDy=0;">
      <mxGeometry width="50" height="50" relative="1" as="geometry">
        <Array as="points">
          <mxPoint x="2033" y="1753" />
          <mxPoint x="2068" y="1753" />
          <mxPoint x="2068" y="1521" />
          <mxPoint x="2126" y="1521" />
        </Array>
      </mxGeometry>
    </mxCell>
    <mxCell id="edge6" edge="1" value="" parent="1" source="node57" target="node32" style="html=1;rounded=1;edgeStyle=orthogonalEdgeStyle;dashed=1;startArrow=none;endArrow=block;endSize=12;strokeColor=#008200;exitX=0.500;exitY=0.000;exitDx=0;exitDy=0;entryX=0.500;entryY=1.000;entryDx=0;entryDy=0;">
      <mxGeometry width="50" height="50" relative="1" as="geometry">
        <Array as="points" />
      </mxGeometry>
    </mxCell>
    <mxCell id="edge21" edge="1" value="" parent="1" source="node24" target="node47" style="html=1;rounded=1;edgeStyle=orthogonalEdgeStyle;dashed=1;startArrow=none;endArrow=block;endSize=12;strokeColor=#008200;exitX=0.500;exitY=1.000;exitDx=0;exitDy=0;entryX=0.776;entryY=1.000;entryDx=0;entryDy=0;">
      <mxGeometry width="50" height="50" relative="1" as="geometry">
        <Array as="points">
          <mxPoint x="846" y="4802" />
          <mxPoint x="1095" y="4802" />
        </Array>
      </mxGeometry>
    </mxCell>
    <mxCell id="edge12" edge="1" value="" parent="1" source="node18" target="node47" style="html=1;rounded=1;edgeStyle=orthogonalEdgeStyle;dashed=1;startArrow=none;endArrow=block;endSize=12;strokeColor=#008200;exitX=0.500;exitY=0.000;exitDx=0;exitDy=0;entryX=0.776;entryY=1.000;entryDx=0;entryDy=0;">
      <mxGeometry width="50" height="50" relative="1" as="geometry">
        <Array as="points">
          <mxPoint x="586" y="4802" />
          <mxPoint x="1095" y="4802" />
        </Array>
      </mxGeometry>
    </mxCell>
    <mxCell id="edge0" edge="1" value="" parent="1" source="node11" target="node47" style="html=1;rounded=1;edgeStyle=orthogonalEdgeStyle;dashed=0;startArrow=none;endArrow=block;endSize=12;strokeColor=#008200;exitX=0.000;exitY=0.268;exitDx=0;exitDy=0;entryX=0.836;entryY=1.000;entryDx=0;entryDy=0;">
      <mxGeometry width="50" height="50" relative="1" as="geometry">
        <Array as="points">
          <mxPoint x="1110" y="4193" />
        </Array>
      </mxGeometry>
    </mxCell>
    <mxCell id="edge9" edge="1" value="" parent="1" source="node41" target="node47" style="html=1;rounded=1;edgeStyle=orthogonalEdgeStyle;dashed=1;startArrow=none;endArrow=block;endSize=12;strokeColor=#008200;exitX=0.500;exitY=0.000;exitDx=0;exitDy=0;entryX=0.776;entryY=1.000;entryDx=0;entryDy=0;">
      <mxGeometry width="50" height="50" relative="1" as="geometry">
        <Array as="points">
          <mxPoint x="1466" y="4802" />
          <mxPoint x="1095" y="4802" />
        </Array>
      </mxGeometry>
    </mxCell>
    <mxCell id="edge30" edge="1" value="" parent="1" source="node64" target="node45" style="html=1;rounded=1;edgeStyle=orthogonalEdgeStyle;dashed=0;startArrow=circlePlus;startFill=0;endArrow=none;strokeColor=#820000;exitX=0.317;exitY=0.000;exitDx=0;exitDy=0;entryX=0.500;entryY=1.000;entryDx=0;entryDy=0;">
      <mxGeometry width="50" height="50" relative="1" as="geometry">
        <Array as="points">
          <mxPoint x="-122" y="6122" />
          <mxPoint x="-103" y="6122" />
          <mxPoint x="-103" y="5812" />
          <mxPoint x="106" y="5812" />
        </Array>
      </mxGeometry>
    </mxCell>
    <mxCell id="edge20" edge="1" value="" parent="1" source="node26" target="node36" style="html=1;rounded=1;edgeStyle=orthogonalEdgeStyle;dashed=0;startArrow=none;endArrow=block;endSize=12;strokeColor=#008200;exitX=0.500;exitY=0.001;exitDx=0;exitDy=0;entryX=0.500;entryY=1.000;entryDx=0;entryDy=0;">
      <mxGeometry width="50" height="50" relative="1" as="geometry">
        <Array as="points">
          <mxPoint x="2346" y="267" />
          <mxPoint x="266" y="267" />
        </Array>
      </mxGeometry>
    </mxCell>
    <mxCell id="edge5" edge="1" value="" parent="1" source="node39" target="node36" style="html=1;rounded=1;edgeStyle=orthogonalEdgeStyle;dashed=0;startArrow=none;endArrow=block;endSize=12;strokeColor=#008200;exitX=0.500;exitY=0.001;exitDx=0;exitDy=0;entryX=0.500;entryY=1.000;entryDx=0;entryDy=0;">
      <mxGeometry width="50" height="50" relative="1" as="geometry">
        <Array as="points">
          <mxPoint x="1846" y="267" />
          <mxPoint x="266" y="267" />
        </Array>
      </mxGeometry>
    </mxCell>
    <mxCell id="edge28" edge="1" value="" parent="1" source="node62" target="node45" style="html=1;rounded=1;edgeStyle=orthogonalEdgeStyle;dashed=0;startArrow=circlePlus;startFill=0;endArrow=none;strokeColor=#820000;exitX=0.500;exitY=0.000;exitDx=0;exitDy=0;entryX=0.500;entryY=1.000;entryDx=0;entryDy=0;">
      <mxGeometry width="50" height="50" relative="1" as="geometry">
        <Array as="points">
          <mxPoint x="706" y="5812" />
          <mxPoint x="106" y="5812" />
        </Array>
      </mxGeometry>
    </mxCell>
    <mxCell id="edge3" edge="1" value="" parent="1" source="node45" target="node47" style="html=1;rounded=1;edgeStyle=orthogonalEdgeStyle;dashed=1;startArrow=none;endArrow=block;endSize=12;strokeColor=#008200;exitX=0.500;exitY=0.000;exitDx=0;exitDy=0;entryX=0.776;entryY=1.000;entryDx=0;entryDy=0;">
      <mxGeometry width="50" height="50" relative="1" as="geometry">
        <Array as="points">
          <mxPoint x="106" y="4802" />
          <mxPoint x="1095" y="4802" />
        </Array>
      </mxGeometry>
    </mxCell>
    <mxCell id="edge11" edge="1" value="" parent="1" source="node48" target="node47" style="html=1;rounded=1;edgeStyle=orthogonalEdgeStyle;dashed=1;startArrow=none;endArrow=block;endSize=12;strokeColor=#008200;exitX=0.500;exitY=0.000;exitDx=0;exitDy=0;entryX=0.776;entryY=1.000;entryDx=0;entryDy=0;">
      <mxGeometry width="50" height="50" relative="1" as="geometry">
        <Array as="points">
          <mxPoint x="1826" y="4802" />
          <mxPoint x="1095" y="4802" />
        </Array>
      </mxGeometry>
    </mxCell>
    <mxCell id="edge2" edge="1" value="" parent="1" source="node44" target="node5" style="html=1;rounded=1;edgeStyle=orthogonalEdgeStyle;dashed=1;startArrow=none;endArrow=block;endSize=12;strokeColor=#008200;exitX=0.000;exitY=0.141;exitDx=0;exitDy=0;entryX=0.000;entryY=0.500;entryDx=0;entryDy=0;">
      <mxGeometry width="50" height="50" relative="1" as="geometry">
        <Array as="points">
          <mxPoint x="2451" y="5918" />
          <mxPoint x="2451" y="5138" />
        </Array>
      </mxGeometry>
    </mxCell>
    <mxCell id="edge16" edge="1" value="" parent="1" source="node52" target="node11" style="html=1;rounded=1;edgeStyle=orthogonalEdgeStyle;dashed=1;startArrow=none;endArrow=block;endSize=12;strokeColor=#008200;exitX=1.000;exitY=0.008;exitDx=0;exitDy=0;entryX=0.500;entryY=1.000;entryDx=0;entryDy=0;">
      <mxGeometry width="50" height="50" relative="1" as="geometry">
        <Array as="points">
          <mxPoint x="2086" y="6482" />
        </Array>
      </mxGeometry>
    </mxCell>
    <mxCell id="edge8" edge="1" value="" parent="1" source="node32" target="node60" style="html=1;rounded=1;edgeStyle=orthogonalEdgeStyle;dashed=0;startArrow=none;endArrow=block;endSize=12;strokeColor=#008200;exitX=0.035;exitY=0.000;exitDx=0;exitDy=0;entryX=0.440;entryY=1.001;entryDx=0;entryDy=0;">
      <mxGeometry width="50" height="50" relative="1" as="geometry">
        <Array as="points" />
      </mxGeometry>
    </mxCell>
    <mxCell id="edge31" edge="1" value="" parent="1" source="node63" target="node45" style="html=1;rounded=1;edgeStyle=orthogonalEdgeStyle;dashed=0;startArrow=circlePlus;startFill=0;endArrow=none;strokeColor=#820000;exitX=0.500;exitY=0.000;exitDx=0;exitDy=0;entryX=0.500;entryY=1.000;entryDx=0;entryDy=0;">
      <mxGeometry width="50" height="50" relative="1" as="geometry">
        <Array as="points">
          <mxPoint x="906" y="6184" />
          <mxPoint x="-103" y="6184" />
          <mxPoint x="-103" y="5812" />
          <mxPoint x="106" y="5812" />
        </Array>
      </mxGeometry>
    </mxCell>
  </root>
</mxGraphModel>